<?xml version="1.0" encoding="UTF-8"?>
<svg id="Livello_2" data-name="Livello 2" xmlns="http://www.w3.org/2000/svg" xmlns:xlink="http://www.w3.org/1999/xlink" viewBox="0 0 674.76 259.65">
  <defs>
    <clipPath id="clippath">
      <path d="M87.35,36.87c-6.23,6.31-10,14.95-10,24.48s3.91,18.4,10.24,24.72l5.19-10.26-3.06-2.91c-4.3-4.31-6.9-10.24-6.9-16.79,0-5.28,1.71-10.15,4.61-14.1l-.08-5.14M87.6,34.94c-2.24-3.01-3.56-6.73-3.56-10.77,0-6.16,2.55-11.31,7.29-14.57C99.18,3.77,108.92.33,119.47.33h3.39c28.55,0,54.08,13.59,70.36,34.5-2.5-.27-4.94-.4-7.51-.4-15.46,0-29.74,5.04-41.29,13.56,0,0-2.04,1.74-8.35,6.45-6.31,4.71-12.46,9.58-18.09,12.09-5.62,2.51-7.9,2.66-12.24,2.66-9.47-.59-16.94-8.41-16.94-18,0-5.3,2.28-10.06,5.92-13.37,0,0,9.35-9.37,35.65-13.55,26.3-4.18,42.34.91,42.34.91,0,0-14.12-7.27-43.78-5.4-26.45,1.67-41.33,15.14-41.33,15.14Z" clip-rule="evenodd" fill="none"/>
    </clipPath>
    <clipPath id="clippath-1">
      <rect x="-83.55" y="-131.74" width="842.01" height="596.01" fill="none"/>
    </clipPath>
  </defs>
  <g id="Livello_1-2" data-name="Livello 1">
    <g>
      <path d="M386.49,33.07l18.63-2.09c-.07,1.68-.07,3.6,0,5.75-.07,1.82-.1,3.97-.09,6.46.1,2.49.11,5.25.02,8.27-.08,3.03-.1,5.55-.03,7.57.11,1.95.29,3.53.54,4.74.21,1.14.56,1.95,1.04,2.42.49.47,1.13.71,1.94.71,1.52,0,2.81-.77,3.86-2.32,1.05-1.55,1.86-3.26,2.42-5.15l.1-.33c-.04-.36-.07-.72-.08-1.09-.15-2.42-.21-4.71-.18-6.86.03-2.15.03-4.27.02-6.36-.06-2.15-.08-4.11-.06-5.85-.06-2.02-.06-3.93,0-5.75l19.8-2.22c.02,1.68.06,3.6.12,5.75.02,1.82,0,3.97-.09,6.46.01,2.49-.03,5.25-.11,8.27-.08,3.03-.1,5.55-.03,7.57.11,1.95.29,3.53.54,4.74.21,1.14.56,1.95,1.04,2.42.49.47,1.13.71,1.94.71,1.52,0,2.81-.77,3.86-2.32,1.05-1.55,1.86-3.26,2.42-5.15.7-2.22,1.27-4.71,1.71-7.47.4,3.63.18,6.86-.67,9.69-.38,1.21-.91,2.39-1.59,3.53-.69,1.14-1.62,2.19-2.8,3.13-1.13.88-2.55,1.58-4.26,2.12-1.62.54-3.55.81-5.79.81-4.21,0-7.41-.64-9.59-1.92-2.18-1.28-3.73-2.89-4.64-4.84-.38-.74-.69-1.5-.94-2.29-.36,1.02-.83,2.03-1.42,3-.69,1.14-1.62,2.19-2.8,3.13-1.13.88-2.55,1.58-4.26,2.12-1.62.54-3.55.81-5.79.81-4.21,0-7.41-.64-9.59-1.92-2.18-1.28-3.73-2.89-4.64-4.84-.11-.24-.22-.48-.32-.72-.18.52-.39,1.03-.63,1.53-.83,1.75-2.08,3.2-3.76,4.34-1.72,1.08-4.01,1.62-6.88,1.62-4.39,0-8.21-.98-11.46-2.93-3.29-2.02-5.85-4.51-7.7-7.47-1.89-3.03-3.01-6.26-3.37-9.69-.31-3.5.27-6.73,1.74-9.69,1.43-3.03,3.88-5.52,7.36-7.47,3.43-2.02,7.98-3.03,13.62-3.03,3.14,0,6.09.47,8.86,1.41.68.22,1.33.44,1.96.68M385.3,49.17c-.03-1.47-.05-2.93-.07-4.37l.08-5.85c.02-1.6.03-3.13.02-4.61-.81-.23-1.58-.34-2.31-.34-2.33,0-4.27.81-5.82,2.42-1.54,1.62-2.74,3.63-3.58,6.05-.84,2.42-1.32,5.05-1.45,7.87-.13,2.82.06,5.45.57,7.87.6,2.42,1.46,4.44,2.61,6.05,1.14,1.62,2.61,2.42,4.41,2.42.81,0,1.48-.34,2.03-1.01.59-.74,1.08-1.65,1.45-2.72.42-1.14.75-2.42.99-3.83.29-1.48.51-2.99.67-4.54.17-1.7.3-3.51.4-5.42ZM216.74,51.16c-.06-2.15-.07-4.3-.05-6.46.03-2.15.1-4.1.21-5.85.12-2.02.23-3.9.34-5.65l19.8-2.22c-.07,1.68-.12,3.6-.15,5.75-.07,1.82-.14,3.97-.22,6.46-.08,2.49-.16,5.25-.24,8.27-.08,6.05-.07,10.46.02,13.22.19,2.76,1.09,4.14,2.7,4.14,1.16,0,2.21-.81,3.12-2.42,1.01-1.61,1.82-3.67,2.44-6.15.57-2.56.97-5.32,1.19-8.27.31-2.96.39-5.79.25-8.48-.14-2.69-.51-5.05-1.12-7.06-.51-2.02-1.32-3.33-2.43-3.94,3.74-1.28,7.01-1.68,9.83-1.21,2.86.4,5.22,1.41,7.09,3.03,1.82,1.55,3.11,3.53,3.89,5.95.86,2.42,1.26,5.01,1.17,7.77-.08,2.76-.66,5.51-1.73,8.27-1.07,2.76-2.62,5.25-4.67,7.47-2.04,2.22-4.58,4.04-7.6,5.45-2.98,1.35-6.44,2.02-10.38,2.02-8.34,0-14.25-1.51-17.75-4.54-3.63-3.09-5.53-8.27-5.71-15.54ZM270.58,28.25c-.06-2.62-.08-4.81-.05-6.56-.03-1.82.16-3.28.57-4.38.5-1.1,1.2-1.98,2.12-2.64.92-.65,2.2-1.19,3.84-1.61,1.64-.42,2.76-.87,5.2-1.46,2.86-.69,5.93-1.42,9.15-2.89,0,2.68.03,6.58,0,8.2.02,1.55-.13,2.87-.45,3.96-.36,1.03-1,1.87-1.92,2.53-.87.58-2.15,1.12-3.84,1.62-1.59.49-4.02,1.09-6.6,1.63-2.54.47-4.27.88-8.01,1.61ZM300.24,51.16c-.06-2.15-.08-4.3-.05-6.46.03-2.15.1-4.1.21-5.85.12-2.02.23-3.9.35-5.65l19.8-2.22c-.07,1.68-.12,3.6-.14,5.75-.07,1.82-.14,3.97-.22,6.46-.08,2.49-.16,5.25-.24,8.27-.08,6.05-.07,10.46.02,13.22.19,2.76,1.09,4.14,2.7,4.14,1.17,0,2.21-.81,3.13-2.42,1.01-1.61,1.82-3.67,2.44-6.15.57-2.56.97-5.32,1.19-8.27.31-2.96.39-5.79.25-8.48-.14-2.69-.51-5.05-1.12-7.06-.51-2.02-1.32-3.33-2.43-3.94,3.74-1.28,7.01-1.68,9.83-1.21,2.86.4,5.23,1.41,7.09,3.03,1.82,1.55,3.11,3.53,3.89,5.95.87,2.42,1.26,5.01,1.17,7.77-.08,2.76-.66,5.51-1.73,8.27-1.07,2.76-2.62,5.25-4.67,7.47-2.04,2.22-4.58,4.04-7.6,5.45-2.98,1.35-6.44,2.02-10.38,2.02-8.34,0-14.26-1.51-17.75-4.54-1.81-1.54-3.18-3.59-4.14-6.16-.09.38-.19.75-.3,1.12-.38,1.21-.9,2.39-1.59,3.53-.69,1.14-1.62,2.19-2.8,3.13-1.13.88-2.55,1.58-4.26,2.12-1.62.54-3.55.81-5.79.81-4.21,0-7.41-.64-9.59-1.92-2.18-1.28-3.73-2.89-4.64-4.84-1.01-1.95-1.56-4.1-1.66-6.46-.15-2.42-.21-4.71-.18-6.86.03-2.15.04-4.27.02-6.36-.06-2.15-.08-4.11-.06-5.85-.06-2.02-.06-3.93.01-5.75l19.8-2.22c.02,1.68.06,3.6.13,5.75.02,1.82,0,3.97-.09,6.46.01,2.49-.02,5.25-.11,8.27-.08,3.03-.1,5.55-.03,7.57.11,1.95.29,3.53.54,4.74.21,1.14.56,1.95,1.04,2.42.49.47,1.13.71,1.94.71,1.53,0,2.81-.77,3.86-2.32,1.05-1.55,1.86-3.26,2.42-5.15.18-.57.35-1.15.51-1.75-.44-1.95-.68-4.12-.74-6.53ZM414.84,28.25c-.06-2.62-.08-4.81-.05-6.56-.03-1.82.16-3.28.57-4.38.5-1.1,1.2-1.98,2.12-2.64.92-.65,2.2-1.19,3.84-1.61,1.64-.42,2.76-.87,5.2-1.46,2.86-.69,5.93-1.42,9.15-2.89,0,2.68.03,6.58,0,8.2.02,1.55-.14,2.87-.45,3.96-.36,1.03-1,1.87-1.92,2.53-.87.58-2.15,1.12-3.84,1.62-1.6.49-4.02,1.09-6.6,1.63-2.54.47-4.27.88-8.01,1.61Z" fill="#00813a" fill-rule="evenodd"/>
      <path d="M241.42,95.59c-.03-1.47-.05-2.93-.07-4.37l.08-5.85c.02-1.6.03-3.13.02-4.61-.81-.23-1.58-.34-2.31-.34-2.33,0-4.27.81-5.81,2.42-1.55,1.61-2.74,3.63-3.58,6.05-.84,2.42-1.32,5.05-1.45,7.87-.13,2.83.06,5.45.57,7.87.6,2.42,1.46,4.44,2.61,6.05,1.15,1.62,2.61,2.42,4.41,2.42.81,0,1.48-.34,2.03-1.01.59-.74,1.08-1.65,1.45-2.72.42-1.14.75-2.42.99-3.83.29-1.48.51-2.99.67-4.54.17-1.7.3-3.51.4-5.42M242.61,79.49l18.63-2.09c-.07,1.68-.07,3.6,0,5.75-.07,1.82-.1,3.97-.09,6.46.1,2.49.11,5.25.02,8.27-.09,3.03-.1,5.55-.04,7.57.11,1.95.29,3.53.54,4.74.21,1.14.56,1.95,1.04,2.42.49.47,1.13.71,1.94.71,1.52,0,2.81-.77,3.86-2.32,1.05-1.55,1.86-3.26,2.42-5.15l.08-26.23,19.66-2.22v5.86c.77-1.42,1.86-2.67,3.27-3.74,1.86-1.41,4.67-2.12,8.43-2.12,4.12,0,7.28.64,9.46,1.92,2.18,1.28,3.75,2.93,4.71,4.95.16.32.31.63.45.96.13-.68.3-1.34.5-1.97.65-1.75,1.75-3.16,3.28-4.24,1.54-1.08,3.83-1.61,6.88-1.61,6.27,0,11.05,1.68,14.32,5.04,3.32,3.3,4.66,8.44,4.03,15.44-.39,5.58-.53,9.55-.43,11.91s.96,3.53,2.58,3.53c.81,0,1.53-.2,2.16-.61.59-.47,1.16-1.04,1.71-1.71.59-.74,1.1-1.55,1.51-2.42.42-.88.81-1.78,1.18-2.73.09-.25.18-.5.26-.76l-.05-25.47,19.8-2.22.02,8.03c.29-.92.67-1.78,1.12-2.58,1.01-1.62,2.39-2.93,4.15-3.94,1.85-1.01,4.3-1.51,7.35-1.51,4.12,0,7.74,1.01,10.85,3.03,3.16,1.95,5.63,4.44,7.43,7.47,1.84,2.96,2.92,6.19,3.23,9.69.36,3.43-.18,6.66-1.61,9.69-1.38,2.96-3.7,5.45-6.96,7.47-3.3,1.95-7.64,2.93-13.01,2.93-4.12,0-7.73-.44-10.81-1.31-.58-.17-1.15-.35-1.69-.52l.04,25.73-19.8,2.22-.06-33.69c-.24.52-.51,1.03-.82,1.53-.69,1.14-1.62,2.19-2.8,3.13-1.13.88-2.55,1.58-4.26,2.12-1.62.54-3.55.81-5.79.81-4.21,0-7.36-.64-9.45-1.92-2.13-1.35-3.61-2.99-4.44-4.94-.74-1.95-1.11-4.11-1.12-6.46-.01-2.35.04-4.61.16-6.76.07-2.08.1-4.04.08-5.85-.02-1.82-.13-3.36-.34-4.64-.12-1.28-.46-2.29-1.04-3.03-.48-.74-1.26-1.11-2.34-1.11-.72,0-1.35.4-1.9,1.21-.5.74-.96,1.75-1.38,3.03-.33,1.28-.6,2.73-.8,4.34-.2,1.62-.34,3.26-.4,4.94v1.01c0,2.22.04,4.54.1,6.96.01,2.35-.02,4.51-.09,6.46-.12,2.29-.15,4.57-.09,6.86h-19.76c-.02-1.68-.02-3.6,0-5.75.07-1.82.1-3.97.09-6.46-.06-2.56-.04-5.35.04-8.38.09-3.03.12-5.45.1-7.26.02-1.89-.07-3.33-.28-4.34-.21-1.01-.56-1.68-1.05-2.02-.44-.4-1.07-.61-1.87-.61-.72,0-1.37.37-1.96,1.11-.5.74-.92,1.75-1.25,3.03-.38,1.21-.66,2.62-.87,4.24-.24,1.55-.42,3.13-.53,4.74-.1,1.38-.17,2.83-.22,4.34v17.36h-19.77l.02-7.4c-.21.42-.43.83-.68,1.24-.69,1.14-1.62,2.19-2.8,3.13-1.13.88-2.55,1.58-4.26,2.12-1.62.54-3.55.81-5.79.81-4.21,0-7.41-.64-9.59-1.92-2.18-1.28-3.73-2.89-4.64-4.84-.11-.24-.22-.48-.32-.72-.18.52-.39,1.03-.63,1.53-.83,1.75-2.08,3.2-3.76,4.34-1.72,1.08-4.01,1.61-6.88,1.61-4.39,0-8.21-.98-11.46-2.93-3.29-2.02-5.85-4.51-7.7-7.47-.24-.38-.46-.76-.67-1.14-1.63,2.38-3.5,4.38-5.62,6.01-2.74,2.11-5.71,3.65-8.91,4.64-3.15.91-6.42,1.8-9.51,1.8-7.19,0-14.56-1.65-18.65-3.62-4.14-2.04-7.61-4.71-10.43-8.01-2.86-3.37-5.03-7.2-6.52-11.49-1.39-4.29-2.09-8.64-2.07-13.07.06-4.5.8-8.89,2.21-13.18,1.51-4.29,3.76-8.08,6.76-11.38,3.04-3.37,6.8-6.08,11.28-8.12,4.48-2.04,9.76-3.06,15.84-3.06,5.15,0,9.59.91,13.31,2.74,3.82,1.83,6.78,4.08,8.9,6.75,2.17,2.6,3.44,5.41,3.82,8.43.33,2.95-.38,5.59-2.14,7.91-1.76,2.32-4.64,4.08-8.64,5.27-4,1.19-9.29,1.33-15.88.42,2.37-2.39,4.07-5.24,5.1-8.54,1.08-3.37,1.56-6.57,1.46-9.59,0-3.02-.56-5.59-1.65-7.7-1.05-2.18-2.46-3.27-4.24-3.27-2.15,0-4.11.95-5.87,2.85-1.76,1.9-3.24,4.43-4.46,7.59-1.26,3.09-2.27,6.64-3.02,10.65-.76,4.01-1.28,8.08-1.57,12.23-.19,4.15-.11,8.22.26,12.23.46,4.01,1.21,7.59,2.24,10.75.82,2.57,1.89,4.72,3.21,6.47.55.57,1.12,1.1,1.75,1.56,2.64,1.9,6.08,2.43,9.45,2.43,3.18,0,6.26-.53,9.22-1.58,3.01-1.12,5.8-2.74,8.35-4.85,1.83-1.51,3.51-3.23,5.06-5.17-.93-2.12-1.52-4.34-1.76-6.65-.31-3.5.27-6.73,1.74-9.69,1.43-3.03,3.89-5.52,7.36-7.47,3.43-2.02,7.98-3.03,13.62-3.03,3.14,0,6.09.47,8.86,1.41.68.22,1.33.44,1.96.68ZM374.78,106.49v7.58c1.4.38,2.8.57,4.22.57,2.24,0,4.11-.77,5.61-2.32,1.45-1.62,2.56-3.57,3.3-5.85.79-2.36,1.23-4.91,1.31-7.67.08-2.76-.13-5.28-.64-7.57-.46-2.36-1.24-4.31-2.34-5.85-1.05-1.61-2.34-2.42-3.87-2.42-.98,0-1.84.4-2.57,1.21-.77.74-1.41,1.75-1.92,3.03-.51,1.28-.95,2.73-1.34,4.34-.38,1.62-.69,3.26-.94,4.94-.42,3.04-.7,6.38-.83,10.02ZM446.07,95.59c-.03-1.47-.05-2.93-.07-4.37l.08-5.85c.02-1.6.03-3.13.02-4.61-.81-.23-1.58-.34-2.31-.34-2.33,0-4.27.81-5.82,2.42-1.54,1.61-2.74,3.63-3.58,6.05-.84,2.42-1.32,5.05-1.45,7.87-.13,2.83.06,5.45.57,7.87.59,2.42,1.46,4.44,2.61,6.05,1.15,1.62,2.61,2.42,4.41,2.42.81,0,1.48-.34,2.03-1.01.59-.74,1.08-1.65,1.45-2.72.42-1.14.75-2.42.99-3.83.29-1.48.51-2.99.67-4.54.17-1.7.3-3.51.4-5.42ZM447.26,79.49l18.63-2.09c-.07,1.68-.07,3.6-.01,5.75-.07,1.82-.1,3.97-.09,6.46.1,2.49.11,5.25.02,8.27-.09,3.03-.1,5.55-.04,7.57.11,1.95.29,3.53.54,4.74.21,1.14.56,1.95,1.04,2.42.49.47,1.14.71,1.94.71,1.53,0,2.81-.77,3.86-2.32,1.05-1.55,1.86-3.26,2.42-5.15l.1-.32-.02-25.91,19.8-2.22v8.08c.29-.94.67-1.81,1.14-2.63,1.01-1.62,2.39-2.93,4.16-3.94,1.76-1.01,4.17-1.51,7.21-1.51,6.28,0,11.09,1.68,14.45,5.04,3.32,3.3,4.66,8.44,4.03,15.44-.43,5.65-.6,9.65-.5,12.01.15,2.29,1.03,3.43,2.64,3.43,1.52,0,2.81-.77,3.86-2.32,1.05-1.55,1.9-3.26,2.56-5.15.09-.25.17-.5.26-.75-1.17-2.39-1.89-4.9-2.17-7.52-.31-3.5.27-6.73,1.74-9.69,1.43-3.03,3.89-5.52,7.36-7.47,3.43-2.02,7.97-3.03,13.62-3.03,3.14,0,6.09.47,8.86,1.41.68.22,1.33.44,1.96.68l18.63-2.09c-.07,1.68-.07,3.6-.01,5.75-.07,1.82-.1,3.97-.09,6.46.1,2.49.11,5.25.02,8.27-.09,3.03-.1,5.55-.03,7.57.11,1.95.29,3.53.54,4.74.21,1.14.56,1.95,1.04,2.42.49.47,1.13.71,1.94.71,1.52,0,2.81-.77,3.86-2.32,1.05-1.55,1.86-3.26,2.42-5.15l.1-.32c-.04-.36-.06-.73-.08-1.09-.15-2.42-.21-4.71-.18-6.86-.08-1.08-.1-2.56-.08-4.44l.09-6.26c-.02-2.35-.02-4.84-.03-7.47-.01-2.62,0-5.21.04-7.77,0-6.06.06-12.55.19-19.48l19.8-2.22c-.05,6.79-.07,13.29-.06,19.48l.03,8.07-.11,7.87c-.08,2.49-.11,4.84-.1,7.06l-.07,5.45c-.08,3.03-.1,5.55-.03,7.57.11,1.95.29,3.53.54,4.74.21,1.14.56,1.95,1.04,2.42.49.47,1.13.71,1.94.71,1.53,0,2.81-.77,3.86-2.32,1.05-1.55,1.86-3.26,2.42-5.15.1-.3.19-.62.28-.93-1.33-2.3-2.13-4.72-2.39-7.24-.4-3.5.29-6.76,2.08-9.79,1.79-3.03,4.74-5.52,8.84-7.47,4.06-2.02,9.41-3.03,16.04-3.03,4.48,0,8.31.64,11.47,1.92,3.16,1.28,5.56,2.89,7.2,4.84,1.63,1.95,2.41,4.1,2.33,6.46-.07,2.36-1.14,4.64-3.18,6.86-2.09,2.15-5.19,4.07-9.29,5.75-3.88,1.59-8.81,2.73-14.79,3.42l.19.65c.81,2.34,1.98,4.32,3.51,5.92,1.81,1.82,4.34,2.73,7.56,2.73,6.1,0,10.82-1.28,14.17-3.83,2.14-1.59,4.01-3.5,5.62-5.74l.81.55c-.21.35-.43.71-.66,1.05-1.28,1.88-3.01,3.56-5.18,5.04-3.18,2.11-4.58,2.66-7.51,3.53-2.92.88-6.27,1.31-10.04,1.31-5.83,0-10.85-.97-15.09-2.93-4.28-2.02-7.63-4.54-10.05-7.57-.2-.27-.4-.53-.59-.8-.12.51-.26,1.02-.43,1.51-.38,1.21-.91,2.39-1.59,3.53-.69,1.14-1.62,2.19-2.8,3.13-1.13.88-2.55,1.58-4.27,2.12-1.62.54-3.55.81-5.79.81-4.21,0-7.41-.64-9.59-1.92-2.18-1.28-3.73-2.89-4.64-4.84-.33-.71-.61-1.45-.84-2.22-.35,1-.82,1.97-1.39,2.92-.69,1.14-1.62,2.19-2.8,3.13-1.13.88-2.55,1.58-4.26,2.12-1.62.54-3.55.81-5.79.81-4.21,0-7.41-.64-9.59-1.92-2.18-1.28-3.73-2.89-4.64-4.84-.11-.24-.22-.48-.32-.72-.18.52-.4,1.03-.64,1.53-.83,1.75-2.08,3.2-3.76,4.34-1.72,1.08-4.01,1.61-6.88,1.61-4.39,0-8.21-.98-11.46-2.93-3.29-2.02-5.85-4.51-7.7-7.47-.11.23-.19.52-.28.81-.38,1.21-.91,2.39-1.59,3.53-.69,1.14-1.62,2.19-2.8,3.13-1.13.88-2.55,1.58-4.26,2.12-1.62.54-3.55.81-5.79.81-2.78,0-5.08-.3-6.91-.91-1.83-.61-3.3-1.41-4.4-2.42-1.11-1.01-1.97-2.19-2.57-3.53-.52-1.35-.86-2.76-1.02-4.24-.16-1.48-.25-2.99-.28-4.54l.2-4.44c.07-2.08.1-4.04.08-5.85.07-1.82,0-3.36-.21-4.64-.21-1.28-.6-2.29-1.17-3.03-.48-.74-1.26-1.11-2.34-1.11-.99,0-1.84.4-2.57,1.21-.77.74-1.46,1.75-2.06,3.03-.51,1.28-.96,2.73-1.34,4.34-.38,1.62-.69,3.26-.94,4.94-.35,2.55-.6,5.3-.75,8.26v13.03h-19.77v-7.62c-.24.49-.5.98-.79,1.46-.69,1.14-1.62,2.19-2.8,3.13-1.13.88-2.55,1.58-4.26,2.12-1.62.54-3.55.81-5.79.81-4.21,0-7.41-.64-9.59-1.92-2.18-1.28-3.72-2.89-4.64-4.84-.11-.24-.22-.48-.32-.72-.18.52-.4,1.03-.64,1.53-.83,1.75-2.08,3.2-3.76,4.34-1.72,1.08-4.01,1.61-6.88,1.61-4.39,0-8.21-.98-11.46-2.93-3.29-2.02-5.85-4.51-7.7-7.47-1.89-3.03-3.01-6.26-3.37-9.69-.31-3.5.27-6.73,1.74-9.69,1.43-3.03,3.89-5.52,7.36-7.47,3.43-2.02,7.97-3.03,13.62-3.03,3.14,0,6.09.47,8.86,1.41.68.22,1.33.44,1.96.68ZM565.47,95.59c-.03-1.47-.05-2.93-.07-4.37l.08-5.85c.02-1.6.03-3.13.02-4.61-.81-.23-1.58-.34-2.31-.34-2.33,0-4.27.81-5.82,2.42-1.55,1.61-2.74,3.63-3.58,6.05-.84,2.42-1.32,5.05-1.45,7.87-.13,2.83.06,5.45.57,7.87.59,2.42,1.46,4.44,2.61,6.05,1.15,1.62,2.61,2.42,4.41,2.42.81,0,1.48-.34,2.03-1.01.6-.74,1.08-1.65,1.45-2.72.42-1.14.75-2.42.99-3.83.29-1.48.51-2.99.67-4.54.17-1.7.3-3.51.4-5.42ZM641.83,97.48c-.07,2.65.14,5.17.64,7.54,1.85-.32,3.43-1.05,4.74-2.19,1.59-1.41,2.82-3.09,3.7-5.05.88-1.95,1.51-4,1.9-6.15.34-2.22.42-4.24.22-6.05-.16-1.88-.54-3.43-1.15-4.64-.56-1.28-1.34-1.92-2.33-1.92-1.25,0-2.46.91-3.6,2.72-1.15,1.82-2.07,4.1-2.78,6.86-.71,2.76-1.15,5.72-1.33,8.88Z" fill="#1d1d1b"/>
      <path d="M222.43,132.08h3.03c.73,0,1.37-.1,1.92-.29.56-.19,1.03-.46,1.41-.8.38-.35.66-.77.86-1.25.19-.48.29-1.01.29-1.6,0-1.2-.37-2.14-1.12-2.82-.74-.68-1.86-1.02-3.36-1.02h-3.03v7.78M222.43,134.11v7.07h-2.55v-18.89h5.58c1.2,0,2.23.14,3.11.42.89.27,1.62.66,2.2,1.17.58.51,1.01,1.12,1.29,1.85.29.72.43,1.53.43,2.41s-.15,1.68-.46,2.41c-.31.73-.76,1.36-1.36,1.89-.59.53-1.32.94-2.2,1.24-.88.29-1.89.43-3.02.43h-3.03Z" fill="#00813a" fill-rule="evenodd"/>
      <path d="M237.28,131.43h2.68c.75,0,1.4-.09,1.96-.26.57-.18,1.05-.44,1.42-.76.39-.33.68-.73.87-1.19.19-.46.29-.96.29-1.52,0-1.12-.37-1.97-1.12-2.55-.74-.57-1.84-.86-3.31-.86h-2.8v7.13M237.28,133.29v7.88h-2.55v-18.89h5.34c1.19,0,2.23.12,3.1.37.87.24,1.59.59,2.15,1.04.57.46.99,1.01,1.27,1.66.27.64.41,1.36.41,2.16,0,.67-.11,1.29-.32,1.87-.21.58-.52,1.1-.92,1.57-.4.46-.88.85-1.46,1.17-.57.33-1.22.57-1.95.74.32.18.6.45.84.8l5.51,7.5h-2.27c-.47,0-.81-.18-1.03-.54l-4.9-6.75c-.15-.21-.31-.36-.49-.45-.18-.1-.44-.14-.79-.14h-1.94Z" fill="#00813a" fill-rule="evenodd"/>
      <path d="M265.11,131.74c0-1.16-.16-2.2-.47-3.12-.32-.92-.77-1.7-1.35-2.33-.58-.64-1.28-1.13-2.11-1.48-.83-.34-1.75-.51-2.77-.51s-1.93.17-2.76.51c-.83.34-1.53.83-2.12,1.48-.58.63-1.03,1.41-1.34,2.33-.32.92-.48,1.96-.48,3.12s.16,2.2.48,3.12c.32.91.76,1.69,1.34,2.33.59.63,1.3,1.12,2.12,1.46.83.33,1.74.5,2.76.5s1.94-.17,2.77-.5c.83-.34,1.53-.83,2.11-1.46.58-.64,1.03-1.42,1.35-2.33.32-.92.47-1.96.47-3.12M267.74,131.74c0,1.42-.22,2.72-.67,3.9-.45,1.18-1.08,2.19-1.9,3.05-.82.85-1.8,1.52-2.95,1.99-1.14.47-2.41.7-3.8.7s-2.65-.23-3.8-.7c-1.14-.48-2.12-1.14-2.94-1.99-.82-.85-1.45-1.87-1.9-3.05-.45-1.19-.67-2.49-.67-3.9s.22-2.71.67-3.89c.45-1.19,1.08-2.21,1.9-3.06.82-.86,1.8-1.53,2.94-2,1.14-.48,2.41-.71,3.8-.71s2.65.24,3.8.71c1.15.47,2.14,1.14,2.95,2,.82.85,1.45,1.87,1.9,3.06.45,1.18.67,2.47.67,3.89Z" fill="#00813a" fill-rule="evenodd"/>
      <path d="M278.39,139.32c.51,0,.98-.02,1.4-.07.43-.05.83-.13,1.21-.22.38-.1.73-.21,1.07-.34.33-.14.67-.3,1-.47v-4.17h-2.93c-.17,0-.3-.05-.41-.15-.1-.1-.14-.21-.14-.36v-1.45h5.8v7.25c-.48.34-.97.64-1.49.9-.51.26-1.06.47-1.65.65-.58.17-1.2.29-1.87.37-.67.09-1.39.13-2.17.13-1.37,0-2.63-.23-3.77-.7-1.14-.48-2.13-1.13-2.95-1.98-.83-.85-1.47-1.87-1.94-3.06-.46-1.19-.68-2.49-.68-3.92s.22-2.76.67-3.94c.46-1.19,1.1-2.2,1.94-3.05.84-.85,1.86-1.51,3.05-1.98,1.2-.46,2.53-.7,4.01-.7.75,0,1.44.06,2.08.17.64.11,1.24.26,1.78.48.55.2,1.06.45,1.53.75.47.29.9.62,1.31.99l-.73,1.16c-.15.24-.34.36-.58.36-.14,0-.29-.05-.46-.15-.22-.12-.47-.27-.74-.45-.27-.18-.61-.34-1-.5-.39-.17-.85-.31-1.38-.42-.53-.11-1.16-.17-1.88-.17-1.06,0-2.03.18-2.89.53-.86.34-1.6.84-2.2,1.49-.61.64-1.07,1.42-1.4,2.35-.33.91-.49,1.94-.49,3.08s.17,2.26.5,3.2c.34.93.82,1.72,1.44,2.37.62.65,1.35,1.15,2.19,1.49.84.34,1.78.51,2.8.51" fill="#00813a"/>
      <polyline points="299.69 122.29 299.69 124.37 290.62 124.37 290.62 130.64 297.97 130.64 297.97 132.65 290.62 132.65 290.62 139.1 299.69 139.1 299.69 141.18 288.05 141.18 288.05 122.29 299.69 122.29" fill="#00813a"/>
      <polyline points="314.98 122.29 314.98 124.43 308.87 124.43 308.87 141.18 306.31 141.18 306.31 124.43 300.18 124.43 300.18 122.29 314.98 122.29" fill="#00813a"/>
      <polyline points="329.27 122.29 329.27 124.43 323.16 124.43 323.16 141.18 320.61 141.18 320.61 124.43 314.47 124.43 314.47 122.29 329.27 122.29" fill="#00813a"/>
      <path d="M333.85,134.16h7.05l-2.97-7.69c-.19-.47-.38-1.07-.57-1.78-.1.36-.19.69-.29,1-.09.3-.18.56-.26.79l-2.97,7.67M346.23,141.18h-1.98c-.23,0-.41-.06-.55-.17-.14-.11-.25-.26-.32-.43l-1.77-4.56h-8.48l-1.77,4.56c-.06.16-.17.3-.32.42-.15.12-.33.18-.55.18h-1.98l7.55-18.89h2.6l7.55,18.89Z" fill="#00813a" fill-rule="evenodd"/>
      <polyline points="395.94 122.29 395.94 124.37 386.87 124.37 386.87 130.64 394.21 130.64 394.21 132.65 386.87 132.65 386.87 139.1 395.94 139.1 395.94 141.18 384.3 141.18 384.3 122.29 395.94 122.29" fill="#00813a"/>
      <path d="M404.98,131.43h2.68c.75,0,1.4-.09,1.96-.26.57-.18,1.05-.44,1.42-.76.39-.33.68-.73.87-1.19.19-.46.29-.96.29-1.52,0-1.12-.37-1.97-1.12-2.55-.74-.57-1.84-.86-3.31-.86h-2.8v7.13M404.98,133.29v7.88h-2.55v-18.89h5.34c1.19,0,2.23.12,3.1.37.87.24,1.59.59,2.15,1.04.57.46.99,1.01,1.27,1.66.27.64.41,1.36.41,2.16,0,.67-.11,1.29-.32,1.87-.21.58-.52,1.1-.92,1.57-.4.46-.88.85-1.46,1.17-.57.33-1.22.57-1.95.74.32.18.6.45.84.8l5.51,7.5h-2.27c-.47,0-.81-.18-1.03-.54l-4.9-6.75c-.15-.21-.31-.36-.49-.45-.18-.1-.44-.14-.79-.14h-1.94Z" fill="#00813a" fill-rule="evenodd"/>
      <polyline points="429.53 122.29 429.53 124.37 420.46 124.37 420.46 130.64 427.81 130.64 427.81 132.65 420.46 132.65 420.46 139.1 429.53 139.1 429.53 141.18 417.89 141.18 417.89 122.29 429.53 122.29" fill="#00813a"/>
      <path d="M435.11,134.16h7.05l-2.97-7.69c-.19-.47-.38-1.07-.57-1.78-.1.36-.19.69-.29,1-.09.3-.18.56-.26.79l-2.97,7.67M447.49,141.18h-1.98c-.23,0-.41-.06-.55-.17-.14-.11-.25-.26-.32-.43l-1.77-4.56h-8.48l-1.77,4.56c-.06.16-.17.3-.32.42-.15.12-.33.18-.55.18h-1.98l7.55-18.89h2.6l7.55,18.89Z" fill="#00813a" fill-rule="evenodd"/>
      <polyline points="451.17 139.03 459.34 139.03 459.34 141.18 448.61 141.18 448.61 122.29 451.17 122.29 451.17 139.03" fill="#00813a"/>
      <rect x="461.37" y="122.29" width="2.56" height="18.89" fill="#00813a"/>
      <path d="M480.89,122.29v.95c0,.3-.09.58-.28.84l-10.69,15.02h10.78v2.08h-14.13v-1c0-.26.08-.51.25-.75l10.71-15.06h-10.46v-2.08h13.82" fill="#00813a"/>
      <path d="M496.07,122.29v.95c0,.3-.09.58-.28.84l-10.69,15.02h10.78v2.08h-14.13v-1c0-.26.08-.51.25-.75l10.71-15.06h-10.46v-2.08h13.82" fill="#00813a"/>
      <path d="M501.27,134.16h7.05l-2.97-7.69c-.19-.47-.38-1.07-.57-1.78-.1.36-.19.69-.29,1-.09.3-.18.56-.26.79l-2.97,7.67M513.65,141.18h-1.98c-.23,0-.41-.06-.55-.17-.14-.11-.25-.26-.32-.43l-1.77-4.56h-8.48l-1.77,4.56c-.06.16-.17.3-.32.42-.15.12-.33.18-.55.18h-1.98l7.56-18.89h2.6l7.55,18.89Z" fill="#00813a" fill-rule="evenodd"/>
      <rect x="519.07" y="122.29" width="2.56" height="18.89" fill="#00813a"/>
      <polyline points="527.98 139.03 536.15 139.03 536.15 141.18 525.42 141.18 525.42 122.29 527.98 122.29 527.98 139.03" fill="#00813a"/>
      <path d="M539.34,122.29h2.04c.23,0,.41.06.55.17.14.12.25.26.32.43l5.34,13.33c.12.3.23.62.33.98.1.35.21.72.3,1.09.08-.38.16-.74.25-1.09.1-.35.21-.68.33-.98l5.31-13.33c.06-.15.17-.28.32-.41.15-.13.33-.2.55-.2h2.06l-7.7,18.89h-2.31l-7.7-18.89" fill="#00813a"/>
      <polyline points="569.84 122.29 569.84 124.37 560.77 124.37 560.77 130.64 568.11 130.64 568.11 132.65 560.77 132.65 560.77 139.1 569.84 139.1 569.84 141.18 558.2 141.18 558.2 122.29 569.84 122.29" fill="#00813a"/>
      <path d="M575.06,131.43h2.68c.75,0,1.4-.09,1.96-.26.57-.18,1.05-.44,1.42-.76.39-.33.68-.73.87-1.19.19-.46.29-.96.29-1.52,0-1.12-.37-1.97-1.12-2.55-.74-.57-1.84-.86-3.31-.86h-2.79v7.13M575.06,133.29v7.88h-2.54v-18.89h5.34c1.2,0,2.23.12,3.1.37.87.24,1.59.59,2.15,1.04.57.46.99,1.01,1.27,1.66.27.64.41,1.36.41,2.16,0,.67-.1,1.29-.32,1.87-.21.58-.52,1.1-.92,1.57-.4.46-.88.85-1.46,1.17-.57.33-1.22.57-1.95.74.32.18.6.45.84.8l5.51,7.5h-2.27c-.47,0-.81-.18-1.03-.54l-4.91-6.75c-.15-.21-.31-.36-.49-.45-.18-.1-.44-.14-.79-.14h-1.94Z" fill="#00813a" fill-rule="evenodd"/>
      <path d="M601.72,131.74c0-1.16-.16-2.2-.47-3.11-.32-.91-.76-1.69-1.34-2.32s-1.28-1.12-2.11-1.45c-.83-.33-1.74-.5-2.76-.5h-4.5v14.75h4.5c1.01,0,1.93-.17,2.76-.5.83-.33,1.53-.81,2.11-1.44.58-.63,1.03-1.41,1.34-2.32.32-.92.47-1.95.47-3.11M604.34,131.74c0,1.42-.22,2.7-.67,3.86-.45,1.16-1.08,2.15-1.9,2.98-.82.83-1.8,1.47-2.94,1.92-1.14.45-2.41.67-3.8.67h-7.07v-18.89h7.07c1.39,0,2.65.23,3.8.68,1.14.45,2.12,1.09,2.94,1.93.82.83,1.45,1.82,1.9,2.98.45,1.16.67,2.45.67,3.86Z" fill="#00813a" fill-rule="evenodd"/>
      <polyline points="618.2 122.29 618.2 124.37 609.13 124.37 609.13 130.64 616.47 130.64 616.47 132.65 609.13 132.65 609.13 139.1 618.2 139.1 618.2 141.18 606.56 141.18 606.56 122.29 618.2 122.29" fill="#00813a"/>
      <path d="M231.52,167.36c.13,0,.24.05.35.16l.91.99c-.7.82-1.56,1.45-2.56,1.9-1,.46-2.21.68-3.62.68-1.24,0-2.36-.21-3.37-.64-1.01-.43-1.87-1.03-2.58-1.8-.71-.78-1.26-1.7-1.65-2.78-.39-1.08-.59-2.27-.59-3.56s.21-2.48.62-3.56c.42-1.08,1.02-2.01,1.77-2.78.76-.77,1.67-1.37,2.72-1.8,1.06-.43,2.23-.65,3.51-.65s2.35.2,3.26.59c.92.39,1.73.92,2.45,1.59l-.76,1.07c-.06.08-.12.15-.19.2-.07.05-.18.07-.31.07-.1,0-.21-.04-.34-.11-.11-.08-.25-.18-.41-.29s-.35-.23-.56-.36-.47-.25-.77-.36c-.3-.11-.64-.2-1.03-.28-.39-.08-.84-.12-1.35-.12-.92,0-1.76.16-2.53.48-.76.31-1.41.76-1.97,1.34-.55.58-.98,1.29-1.29,2.13-.3.84-.46,1.78-.46,2.82s.15,2.03.46,2.86c.31.84.73,1.55,1.26,2.13.54.58,1.17,1.02,1.89,1.32.73.3,1.51.46,2.35.46.51,0,.97-.03,1.38-.08.41-.06.78-.16,1.13-.29.35-.13.68-.29.97-.48.3-.2.61-.44.91-.71.14-.12.27-.18.4-.18" fill="#7c7c7b"/>
      <path d="M238.01,169.6c.38,0,.72-.04,1.03-.11.31-.08.6-.19.88-.32.28-.14.54-.32.79-.51.26-.2.5-.43.74-.68v-2.53c-.98.03-1.82.11-2.51.24-.69.12-1.25.28-1.68.48-.43.2-.75.43-.95.71-.19.27-.29.58-.29.91s.05.6.16.83c.1.23.24.42.42.57.18.14.38.25.62.32.24.06.5.1.78.1M243.55,170.9h-.95c-.21,0-.38-.03-.5-.1-.13-.06-.21-.2-.25-.41l-.24-1.13c-.32.29-.63.55-.93.78-.3.22-.62.42-.96.58-.33.15-.69.27-1.08.35-.38.08-.8.12-1.26.12s-.92-.06-1.33-.19c-.41-.14-.76-.34-1.07-.6-.3-.26-.55-.6-.73-.99-.18-.41-.26-.89-.26-1.44,0-.48.13-.94.4-1.38.26-.45.69-.84,1.27-1.19.59-.34,1.36-.62,2.31-.84.95-.22,2.11-.35,3.49-.38v-.95c0-.94-.2-1.65-.61-2.13-.4-.49-.99-.73-1.79-.73-.52,0-.96.07-1.32.2-.35.13-.66.28-.92.44-.26.16-.48.31-.67.44-.18.13-.37.19-.55.19-.14,0-.27-.04-.38-.11-.1-.08-.19-.17-.25-.29l-.38-.68c.67-.65,1.39-1.13,2.17-1.45.78-.32,1.63-.48,2.58-.48.68,0,1.28.11,1.81.33.53.22.97.54,1.33.93.36.4.63.88.82,1.45.18.57.28,1.19.28,1.87v7.77Z" fill="#7c7c7b" fill-rule="evenodd"/>
      <path d="M252.86,160.76c-.1.17-.24.26-.44.26-.12,0-.26-.04-.41-.13-.15-.09-.34-.18-.56-.29-.22-.11-.48-.21-.78-.3-.3-.1-.66-.15-1.08-.15-.36,0-.68.05-.97.15-.29.09-.54.21-.74.37-.2.16-.36.35-.47.56-.1.21-.16.44-.16.68,0,.31.09.57.26.78.18.21.42.39.72.54.3.15.63.29,1.01.41.38.11.76.24,1.15.37.4.13.79.27,1.16.43.38.16.71.36,1.01.6.3.24.53.54.71.89.18.34.28.76.28,1.25,0,.56-.1,1.08-.3,1.56-.2.47-.5.88-.89,1.24-.39.34-.87.61-1.44.82-.57.2-1.22.3-1.97.3-.85,0-1.61-.14-2.3-.41-.69-.28-1.27-.64-1.75-1.07l.5-.82c.06-.1.14-.18.23-.24.09-.06.2-.08.35-.08s.3.06.46.17c.16.11.35.24.58.37.23.14.51.26.83.37.33.11.74.17,1.22.17.42,0,.78-.05,1.09-.15.31-.11.57-.26.78-.44.21-.18.36-.39.46-.64.1-.24.16-.49.16-.77,0-.34-.09-.61-.28-.83-.18-.22-.41-.41-.71-.56-.3-.16-.64-.3-1.02-.41-.38-.12-.76-.24-1.16-.37-.39-.13-.78-.27-1.16-.43-.38-.17-.71-.38-1.01-.62-.3-.25-.54-.55-.72-.91-.18-.37-.26-.81-.26-1.33,0-.46.1-.91.29-1.33.19-.43.47-.81.84-1.13.37-.33.82-.59,1.35-.78.54-.19,1.15-.29,1.83-.29.8,0,1.51.13,2.15.38.64.25,1.19.59,1.65,1.03l-.48.78" fill="#7c7c7b"/>
      <path d="M262.39,160.76c-.1.17-.24.26-.44.26-.12,0-.26-.04-.41-.13-.15-.09-.34-.18-.56-.29-.22-.11-.48-.21-.78-.3-.3-.1-.66-.15-1.08-.15-.36,0-.68.05-.97.15-.29.09-.53.21-.74.37-.2.16-.36.35-.47.56-.1.21-.16.44-.16.68,0,.31.09.57.26.78.18.21.42.39.72.54.3.15.63.29,1.01.41.38.11.76.24,1.15.37.4.13.79.27,1.16.43.38.16.71.36,1.01.6.3.24.53.54.71.89.18.34.28.76.28,1.25,0,.56-.1,1.08-.3,1.56-.2.47-.5.88-.89,1.24-.39.34-.87.61-1.44.82-.57.2-1.22.3-1.97.3-.85,0-1.61-.14-2.3-.41-.69-.28-1.27-.64-1.75-1.07l.5-.82c.06-.1.14-.18.23-.24.09-.06.2-.08.35-.08s.3.06.46.17c.16.11.35.24.58.37.23.14.51.26.83.37.33.11.74.17,1.22.17.42,0,.78-.05,1.09-.15.31-.11.57-.26.78-.44.21-.18.36-.39.46-.64.1-.24.16-.49.16-.77,0-.34-.09-.61-.28-.83-.18-.22-.41-.41-.71-.56-.3-.16-.64-.3-1.02-.41-.38-.12-.76-.24-1.16-.37-.39-.13-.78-.27-1.16-.43-.38-.17-.71-.38-1.01-.62-.3-.25-.54-.55-.72-.91-.18-.37-.26-.81-.26-1.33,0-.46.1-.91.29-1.33.19-.43.47-.81.84-1.13.37-.33.82-.59,1.35-.78.54-.19,1.15-.29,1.83-.29.8,0,1.51.13,2.15.38.64.25,1.19.59,1.65,1.03l-.48.78" fill="#7c7c7b"/>
      <path d="M268.35,169.6c.38,0,.72-.04,1.03-.11.31-.08.6-.19.88-.32.28-.14.54-.32.79-.51.26-.2.5-.43.74-.68v-2.53c-.98.03-1.82.11-2.51.24-.69.12-1.25.28-1.68.48-.43.2-.75.43-.95.71-.19.27-.29.58-.29.91s.05.6.16.83c.1.23.24.42.42.57.18.14.38.25.62.32.24.06.5.1.78.1M273.89,170.9h-.95c-.21,0-.38-.03-.5-.1-.13-.06-.21-.2-.25-.41l-.24-1.13c-.32.29-.63.55-.93.78-.3.22-.62.42-.96.58-.33.15-.69.27-1.08.35-.38.08-.8.12-1.26.12s-.92-.06-1.33-.19c-.41-.14-.76-.34-1.07-.6-.3-.26-.55-.6-.73-.99-.18-.41-.26-.89-.26-1.44,0-.48.13-.94.4-1.38.26-.45.69-.84,1.27-1.19.59-.34,1.36-.62,2.31-.84.95-.22,2.11-.35,3.49-.38v-.95c0-.94-.2-1.65-.61-2.13-.4-.49-.99-.73-1.79-.73-.52,0-.96.07-1.32.2-.35.13-.66.28-.92.44-.26.16-.48.31-.67.44-.18.13-.37.19-.55.19-.14,0-.27-.04-.38-.11-.1-.08-.19-.17-.25-.29l-.38-.68c.67-.65,1.39-1.13,2.17-1.45.78-.32,1.63-.48,2.58-.48.68,0,1.28.11,1.81.33.53.22.97.54,1.33.93.36.4.63.88.82,1.45.18.57.28,1.19.28,1.87v7.77Z" fill="#7c7c7b" fill-rule="evenodd"/>
      <path d="M276.25,170.9v-12.14h1.27c.3,0,.5.15.58.44l.17,1.32c.53-.58,1.11-1.05,1.76-1.41.65-.36,1.41-.54,2.26-.54.66,0,1.25.11,1.75.34.51.22.94.53,1.27.93.34.4.6.88.78,1.45.18.57.26,1.2.26,1.88v7.73h-2.13v-7.73c0-.92-.21-1.63-.64-2.13-.41-.51-1.05-.77-1.92-.77-.63,0-1.22.15-1.77.46-.54.3-1.05.71-1.51,1.23v8.94h-2.13" fill="#7c7c7b"/>
      <path d="M293.62,169.4c1.2,0,2.09-.4,2.68-1.2.59-.81.89-1.93.89-3.37s-.3-2.57-.89-3.38c-.59-.81-1.49-1.21-2.68-1.21-.61,0-1.14.1-1.58.31-.45.21-.82.51-1.13.9-.29.39-.52.87-.67,1.45-.14.57-.22,1.21-.22,1.93s.07,1.36.22,1.93c.15.57.38,1.05.67,1.44.3.38.68.68,1.13.89.45.21.97.31,1.58.31M293.62,158.57c.89,0,1.69.15,2.4.44.72.3,1.33.71,1.82,1.26.5.54.89,1.2,1.15,1.98.27.77.41,1.63.41,2.58s-.14,1.82-.41,2.59c-.26.77-.65,1.42-1.15,1.96-.5.54-1.1.96-1.82,1.26-.71.29-1.51.43-2.4.43s-1.69-.14-2.41-.43c-.71-.3-1.32-.71-1.82-1.26-.5-.54-.89-1.2-1.16-1.96-.27-.77-.41-1.63-.41-2.59s.14-1.81.41-2.58c.27-.77.66-1.43,1.16-1.98.5-.54,1.11-.96,1.82-1.26.72-.3,1.52-.44,2.41-.44Z" fill="#7c7c7b" fill-rule="evenodd"/>
      <path d="M309.32,169.35c.7,0,1.3-.16,1.82-.48.53-.32,1.01-.77,1.45-1.36v-5.87c-.39-.53-.82-.89-1.29-1.1-.46-.22-.98-.32-1.55-.32-1.13,0-2.01.4-2.61,1.21-.61.81-.91,1.96-.91,3.45,0,.79.07,1.47.2,2.04.14.56.34,1.02.6,1.39.26.36.59.62.97.79.38.17.82.25,1.32.25M313.45,170.9c-.3,0-.49-.15-.58-.44l-.19-1.48c-.52.63-1.11,1.14-1.79,1.52-.66.38-1.43.56-2.29.56-.7,0-1.33-.13-1.89-.39-.57-.27-1.05-.67-1.45-1.19-.4-.52-.71-1.17-.92-1.94-.22-.78-.32-1.67-.32-2.67,0-.9.12-1.73.36-2.49.24-.77.58-1.45,1.03-2.01.46-.57,1.01-1.01,1.65-1.33.65-.33,1.38-.49,2.21-.49.74,0,1.38.13,1.91.38.53.25,1,.6,1.41,1.05v-6.74h2.13v17.65h-1.27Z" fill="#7c7c7b" fill-rule="evenodd"/>
      <path d="M322.29,160.14c-1.03,0-1.84.3-2.43.9-.59.59-.96,1.41-1.1,2.47h6.6c0-.49-.07-.95-.2-1.35-.13-.42-.33-.77-.6-1.07-.26-.3-.59-.54-.97-.7-.38-.17-.81-.25-1.29-.25M322.24,158.57c.73,0,1.4.12,2.01.37.61.24,1.15.59,1.59,1.05.45.45.79,1.02,1.04,1.7.26.67.38,1.44.38,2.3,0,.34-.04.56-.11.67s-.21.17-.41.17h-8.08c.01.77.12,1.43.31,2,.19.57.45,1.04.79,1.43.34.38.74.66,1.2.85.46.18.98.27,1.56.27.54,0,1-.06,1.38-.18.39-.13.73-.26,1.01-.41.28-.14.51-.28.7-.39.19-.13.35-.19.49-.19.17,0,.31.07.41.2l.6.78c-.26.32-.58.6-.95.84-.37.23-.76.42-1.19.57-.42.15-.85.26-1.29.34-.45.08-.89.12-1.33.12-.84,0-1.61-.14-2.32-.42-.7-.29-1.32-.7-1.83-1.25-.51-.55-.91-1.23-1.2-2.04-.29-.81-.43-1.73-.43-2.78,0-.85.13-1.64.38-2.37.26-.74.64-1.37,1.13-1.91.49-.54,1.08-.97,1.79-1.27.7-.31,1.49-.47,2.37-.47Z" fill="#7c7c7b" fill-rule="evenodd"/>
      <rect x="329.36" y="153.25" width="2.13" height="17.65" fill="#7c7c7b"/>
      <rect x="334.62" y="153.25" width="2.13" height="17.65" fill="#7c7c7b"/>
      <path d="M344.5,160.14c-1.03,0-1.84.3-2.43.9-.59.59-.96,1.41-1.1,2.47h6.6c0-.49-.07-.95-.2-1.35-.13-.42-.33-.77-.6-1.07-.26-.3-.59-.54-.97-.7-.38-.17-.81-.25-1.29-.25M344.45,158.57c.73,0,1.4.12,2.01.37.61.24,1.15.59,1.59,1.05.45.45.79,1.02,1.04,1.7.26.67.38,1.44.38,2.3,0,.34-.04.56-.11.67s-.21.17-.41.17h-8.08c.02.77.12,1.43.31,2,.19.57.45,1.04.79,1.43.33.38.74.66,1.2.85.46.18.98.27,1.56.27.54,0,.99-.06,1.38-.18.39-.13.73-.26,1.01-.41.28-.14.51-.28.7-.39.19-.13.35-.19.49-.19.18,0,.31.07.41.2l.6.78c-.26.32-.58.6-.95.84-.37.23-.76.42-1.19.57-.42.15-.85.26-1.29.34-.45.08-.89.12-1.33.12-.84,0-1.61-.14-2.32-.42-.7-.29-1.32-.7-1.83-1.25-.51-.55-.91-1.23-1.2-2.04s-.43-1.73-.43-2.78c0-.85.13-1.64.38-2.37.26-.74.64-1.37,1.13-1.91.49-.54,1.08-.97,1.79-1.27.7-.31,1.49-.47,2.37-.47Z" fill="#7c7c7b" fill-rule="evenodd"/>
      <path d="M363.87,164.7c.11.19.21.39.29.61.09.21.17.42.25.64.08-.22.16-.44.25-.64.09-.21.19-.41.3-.62l5.81-10.56c.1-.18.21-.3.32-.34.11-.04.27-.06.48-.06h1.71v17.18h-2.04v-12.62c0-.17,0-.35.01-.54,0-.19.02-.39.04-.59l-5.89,10.74c-.2.36-.48.54-.84.54h-.34c-.36,0-.64-.18-.84-.54l-6.02-10.78c.02.21.04.41.05.61.02.2.02.38.02.55v12.62h-2.04v-17.18h1.71c.21,0,.37.02.48.06.11.04.22.15.32.34l5.93,10.57" fill="#7c7c7b"/>
      <path d="M378.11,158.76v7.74c0,.92.21,1.63.64,2.13.42.5,1.06.76,1.92.76.62,0,1.21-.15,1.76-.44.55-.3,1.06-.71,1.52-1.23v-8.95h2.13v12.14h-1.27c-.3,0-.5-.15-.58-.44l-.17-1.31c-.53.58-1.12,1.06-1.77,1.42-.65.35-1.41.53-2.25.53-.66,0-1.25-.11-1.76-.32-.5-.22-.93-.54-1.27-.93-.34-.4-.6-.88-.78-1.45-.17-.57-.25-1.19-.25-1.88v-7.74h2.13" fill="#7c7c7b"/>
      <path d="M388.72,170.9v-12.14h1.22c.23,0,.39.04.48.13s.15.24.18.46l.14,1.89c.42-.85.93-1.51,1.54-1.98.61-.48,1.33-.72,2.16-.72.34,0,.64.04.91.12.27.07.52.18.76.31l-.27,1.59c-.06.2-.18.3-.37.3-.11,0-.28-.04-.51-.11-.23-.08-.56-.12-.97-.12-.74,0-1.37.22-1.87.65-.49.43-.91,1.06-1.25,1.88v7.73h-2.13" fill="#7c7c7b"/>
      <path d="M401.6,164.97c.43,0,.81-.06,1.14-.18.34-.12.62-.29.84-.5.22-.22.39-.47.5-.77.11-.3.17-.64.17-.99,0-.74-.23-1.33-.68-1.77-.45-.44-1.1-.66-1.96-.66s-1.51.22-1.97.66c-.45.44-.67,1.03-.67,1.77,0,.36.06.69.17.99.12.3.29.55.52.77.22.21.5.38.83.5.33.12.7.18,1.13.18M405.38,171.56c0-.3-.08-.55-.25-.73-.17-.18-.4-.32-.68-.42-.29-.1-.62-.18-.99-.23-.38-.05-.77-.08-1.19-.1-.42-.02-.84-.05-1.27-.07-.43-.02-.84-.07-1.23-.13-.45.22-.83.48-1.11.79-.28.31-.42.68-.42,1.11,0,.27.07.52.2.76.14.24.36.44.65.61.29.17.65.31,1.08.41.44.1.95.16,1.55.16s1.09-.05,1.55-.16c.46-.1.84-.25,1.15-.44.32-.19.56-.42.73-.68.17-.26.25-.55.25-.88ZM401.6,158.56c.53,0,1.02.06,1.47.18.46.11.88.28,1.26.5h3.3v.79c0,.26-.17.43-.5.5l-1.38.19c.27.52.41,1.1.41,1.74,0,.59-.11,1.13-.35,1.62-.22.48-.54.89-.95,1.23-.4.34-.88.61-1.44.79-.55.18-1.16.28-1.82.28-.57,0-1.1-.07-1.61-.2-.26.16-.45.33-.59.52-.13.18-.19.36-.19.54,0,.29.12.51.35.66.23.14.54.25.92.31.38.06.82.1,1.31.12.49.02.98.04,1.49.08.51.03,1.01.09,1.5.18.49.09.92.23,1.31.43.38.2.69.48.92.83.23.35.35.81.35,1.37,0,.52-.13,1.02-.39,1.51-.26.49-.63.92-1.11,1.29-.49.38-1.08.69-1.79.91-.7.23-1.5.35-2.39.35s-1.67-.09-2.34-.26c-.66-.17-1.21-.41-1.65-.71-.44-.3-.77-.64-.99-1.03-.22-.38-.32-.79-.32-1.21,0-.6.19-1.11.56-1.52.38-.42.91-.76,1.57-1.01-.34-.16-.62-.37-.83-.64-.2-.27-.3-.63-.3-1.08,0-.18.03-.36.1-.54.06-.19.16-.38.29-.56.14-.18.3-.36.49-.53.19-.17.41-.32.67-.44-.6-.34-1.07-.78-1.41-1.33-.34-.56-.5-1.21-.5-1.95,0-.59.11-1.13.34-1.61.23-.49.55-.9.96-1.23.41-.34.89-.61,1.45-.79.57-.18,1.19-.28,1.86-.28Z" fill="#7c7c7b" fill-rule="evenodd"/>
      <path d="M413.74,160.14c-1.03,0-1.84.3-2.43.9-.59.59-.96,1.41-1.1,2.47h6.6c0-.49-.07-.95-.2-1.35-.13-.42-.33-.77-.6-1.07-.26-.3-.59-.54-.97-.7-.38-.17-.81-.25-1.29-.25M413.69,158.57c.73,0,1.4.12,2.01.37.61.24,1.15.59,1.59,1.05.45.45.79,1.02,1.04,1.7.26.67.38,1.44.38,2.3,0,.34-.04.56-.11.67s-.21.17-.41.17h-8.08c.02.77.12,1.43.31,2,.19.57.46,1.04.79,1.43.34.38.74.66,1.2.85.46.18.98.27,1.56.27.54,0,.99-.06,1.38-.18.39-.13.73-.26,1.01-.41.28-.14.51-.28.7-.39.19-.13.35-.19.49-.19.18,0,.31.07.41.2l.6.78c-.26.32-.58.6-.95.84-.37.23-.76.42-1.19.57-.42.15-.85.26-1.29.34-.45.08-.89.12-1.33.12-.84,0-1.61-.14-2.33-.42-.7-.29-1.31-.7-1.83-1.25-.51-.55-.91-1.23-1.2-2.04-.29-.81-.43-1.73-.43-2.78,0-.85.13-1.64.38-2.37.26-.74.64-1.37,1.13-1.91.49-.54,1.08-.97,1.79-1.27.7-.31,1.49-.47,2.37-.47Z" fill="#7c7c7b" fill-rule="evenodd"/>
      <path d="M426.04,163.36c0,1.71.22,3.37.66,4.99.44,1.61,1.07,3.14,1.9,4.6.05.09.08.16.1.23s.02.13.02.19c0,.11-.03.2-.08.28-.06.07-.13.14-.22.19l-.95.57c-.6-.92-1.11-1.83-1.54-2.73-.41-.9-.76-1.81-1.02-2.72-.26-.91-.44-1.83-.56-2.74-.12-.93-.18-1.88-.18-2.85s.06-1.91.18-2.84c.12-.93.31-1.84.56-2.74.26-.91.6-1.82,1.02-2.72.42-.9.93-1.82,1.54-2.74l.95.59c.09.06.16.12.22.19.06.07.08.16.08.28,0,.12-.04.26-.12.41-.84,1.45-1.48,2.99-1.92,4.6-.43,1.61-.65,3.28-.65,4.99" fill="#7c7c7b"/>
      <path d="M433.3,161.42h3.07c.66,0,1.22-.07,1.7-.22.48-.14.88-.34,1.19-.6.32-.26.56-.56.71-.92.15-.37.23-.77.23-1.2,0-1.01-.3-1.75-.91-2.22-.61-.47-1.55-.71-2.83-.71h-3.15v5.86M433.3,163.08v5.98h3.72c.66,0,1.23-.08,1.7-.23.48-.15.87-.36,1.18-.64.31-.28.54-.61.68-.98.15-.38.22-.8.22-1.26,0-.89-.32-1.59-.95-2.1-.62-.52-1.57-.78-2.84-.78h-3.7ZM430.98,170.9v-17.18h5.48c1.05,0,1.96.1,2.72.31.77.21,1.39.5,1.88.89.49.38.86.85,1.09,1.41.24.55.36,1.17.36,1.87,0,.42-.07.83-.2,1.22-.13.39-.33.76-.6,1.09-.26.34-.6.64-1.01.9-.4.26-.87.48-1.41.65,1.25.25,2.2.7,2.84,1.35.64.65.96,1.52.96,2.59,0,.73-.14,1.39-.41,1.99-.26.6-.65,1.11-1.17,1.55-.51.43-1.14.77-1.89,1.01-.74.23-1.59.35-2.55.35h-6.08Z" fill="#7c7c7b" fill-rule="evenodd"/>
      <path d="M448.66,169.6c.38,0,.72-.04,1.03-.11.31-.08.6-.19.88-.32.28-.14.54-.32.79-.51.26-.2.5-.43.74-.68v-2.53c-.98.03-1.82.11-2.51.24-.69.12-1.25.28-1.68.48-.43.2-.75.43-.95.71-.19.27-.29.58-.29.91s.05.6.16.83c.1.23.24.42.42.57.18.14.38.25.62.32.24.06.5.1.78.1M454.19,170.9h-.95c-.21,0-.38-.03-.5-.1s-.21-.2-.25-.41l-.24-1.13c-.32.29-.63.55-.94.78-.3.22-.62.42-.96.58-.34.15-.7.27-1.08.35-.38.08-.79.12-1.26.12s-.92-.06-1.33-.19c-.41-.14-.76-.34-1.07-.6-.3-.26-.55-.6-.73-.99-.18-.41-.26-.89-.26-1.44,0-.48.13-.94.4-1.38.26-.45.69-.84,1.27-1.19.59-.34,1.36-.62,2.31-.84.95-.22,2.11-.35,3.49-.38v-.95c0-.94-.2-1.65-.61-2.13-.4-.49-.99-.73-1.79-.73-.52,0-.96.07-1.32.2-.35.13-.66.28-.92.44-.26.16-.48.31-.67.44-.18.13-.37.19-.55.19-.14,0-.27-.04-.38-.11-.1-.08-.19-.17-.25-.29l-.38-.68c.67-.65,1.39-1.13,2.17-1.45.77-.32,1.63-.48,2.58-.48.68,0,1.28.11,1.81.33.53.22.97.54,1.33.93.36.4.63.88.82,1.45.18.57.28,1.19.28,1.87v7.77Z" fill="#7c7c7b" fill-rule="evenodd"/>
      <path d="M456.56,170.9v-12.14h1.22c.23,0,.39.04.48.13.09.09.15.24.18.46l.14,1.89c.42-.85.93-1.51,1.53-1.98.61-.48,1.33-.72,2.16-.72.34,0,.64.04.91.12.27.07.52.18.76.31l-.28,1.59c-.05.2-.18.3-.37.3-.11,0-.28-.04-.52-.11-.23-.08-.56-.12-.97-.12-.74,0-1.37.22-1.87.65-.49.43-.91,1.06-1.25,1.88v7.73h-2.13" fill="#7c7c7b"/>
      <path d="M468.2,154.95c0,.21-.04.4-.13.59-.08.18-.19.33-.33.48-.14.14-.3.24-.48.32-.18.08-.38.12-.59.12s-.4-.04-.59-.12c-.18-.08-.34-.19-.48-.32-.14-.14-.24-.3-.32-.48-.08-.18-.12-.38-.12-.59s.04-.4.12-.59c.08-.19.19-.36.32-.49.14-.14.3-.26.48-.34.18-.08.38-.12.59-.12s.4.04.59.12c.18.08.34.19.48.34.14.14.26.3.33.49.09.18.13.38.13.59M465.58,158.76h2.13v12.14h-2.13v-12.14Z" fill="#7c7c7b" fill-rule="evenodd"/>
      <path d="M472.43,163.36c0-1.71-.22-3.37-.66-4.99-.43-1.61-1.07-3.15-1.91-4.6-.08-.15-.12-.29-.12-.41,0-.11.03-.2.08-.28.06-.07.13-.14.22-.19l.95-.59c.6.93,1.11,1.84,1.52,2.74.42.9.76,1.81,1.02,2.72.26.9.45,1.82.57,2.74.12.93.18,1.87.18,2.84s-.06,1.93-.18,2.85c-.12.92-.31,1.83-.57,2.74-.26.91-.6,1.82-1.02,2.72-.41.9-.92,1.81-1.52,2.73l-.95-.57c-.09-.06-.16-.12-.22-.19-.06-.07-.08-.16-.08-.28,0-.06,0-.13.02-.19.02-.06.05-.14.1-.23.83-1.46,1.47-3,1.91-4.6.44-1.61.66-3.28.66-4.99" fill="#00813a"/>
      <path d="M481.42,163.77c0-.62.12-1.19.35-1.74.24-.54.56-1.01.96-1.41.4-.41.87-.73,1.4-.96.54-.24,1.12-.36,1.73-.36s1.19.12,1.74.36c.54.23,1.02.55,1.41.96.41.4.73.87.96,1.41.24.54.36,1.12.36,1.74s-.12,1.19-.36,1.74c-.23.54-.55,1-.96,1.4-.4.4-.87.72-1.41.96-.54.23-1.12.35-1.74.35s-1.18-.12-1.73-.35c-.53-.24-1-.56-1.4-.96-.4-.4-.72-.87-.96-1.4-.23-.54-.35-1.12-.35-1.74" fill="#95c23d"/>
      <path d="M508.98,162.32c0-1.31-.11-2.41-.34-3.3-.22-.9-.51-1.61-.89-2.16-.37-.54-.79-.93-1.28-1.16-.49-.24-.99-.36-1.52-.36s-1.03.12-1.52.36c-.49.23-.91.62-1.28,1.16-.37.54-.66,1.26-.89,2.16-.22.89-.32,1.98-.32,3.3s.11,2.41.32,3.3c.22.89.52,1.6.89,2.15.37.54.79.93,1.28,1.17.49.23,1,.35,1.52.35s1.03-.12,1.52-.35c.49-.24.91-.63,1.28-1.17.38-.54.67-1.26.89-2.15.22-.89.34-1.99.34-3.3M511.19,162.32c0,1.5-.16,2.8-.49,3.91-.32,1.1-.76,2-1.32,2.72-.56.72-1.22,1.26-1.99,1.61-.76.35-1.58.53-2.45.53s-1.7-.18-2.46-.53c-.75-.35-1.41-.89-1.96-1.61-.56-.72-1-1.63-1.32-2.72-.32-1.1-.48-2.4-.48-3.91s.16-2.8.48-3.91c.32-1.1.76-2.01,1.32-2.73.56-.73,1.21-1.27,1.96-1.62.76-.35,1.58-.53,2.46-.53s1.69.18,2.45.53c.77.35,1.43.89,1.99,1.62.56.72,1,1.63,1.32,2.73.33,1.1.49,2.41.49,3.91Z" fill="#7c7c7b" fill-rule="evenodd"/>
      <path d="M517.98,161.15c.56,0,1.03-.08,1.43-.25.4-.17.72-.4.97-.68.25-.29.43-.61.54-.98.11-.37.17-.75.17-1.14s-.07-.77-.2-1.13c-.13-.35-.32-.66-.59-.92-.26-.26-.58-.47-.97-.62-.38-.15-.83-.23-1.34-.23s-.96.08-1.35.23c-.38.15-.71.36-.97.62-.26.26-.45.57-.59.92-.13.35-.19.73-.19,1.13s.06.77.17,1.14c.11.37.29.7.54.98.25.28.57.51.96.68.4.17.88.25,1.44.25M517.98,169.39c.56,0,1.06-.08,1.5-.23.45-.16.82-.38,1.13-.66.31-.29.55-.63.71-1.02.17-.4.25-.84.25-1.32,0-.59-.1-1.1-.3-1.51-.19-.42-.46-.77-.79-1.03-.33-.26-.71-.45-1.14-.57-.43-.13-.88-.19-1.35-.19s-.92.06-1.35.19c-.43.12-.82.31-1.15.57-.33.26-.59.61-.79,1.03-.19.42-.29.92-.29,1.51,0,.48.08.92.24,1.32.17.39.4.73.71,1.02.31.28.69.5,1.13.66.45.15.95.23,1.51.23ZM517.98,171.1c-.85,0-1.64-.11-2.35-.34-.71-.23-1.32-.56-1.83-.98-.51-.42-.91-.93-1.19-1.53-.28-.61-.42-1.29-.42-2.04,0-1.1.29-2.01.86-2.72.58-.72,1.4-1.23,2.47-1.53-.9-.34-1.59-.84-2.05-1.5-.45-.67-.68-1.47-.68-2.4,0-.63.12-1.22.37-1.77.25-.55.6-1.03,1.05-1.44.46-.41,1-.73,1.63-.96.64-.23,1.35-.35,2.13-.35s1.48.12,2.12.35c.64.23,1.19.55,1.64.96.46.41.81.89,1.05,1.44.25.55.37,1.14.37,1.77,0,.93-.23,1.73-.7,2.4-.46.66-1.14,1.16-2.04,1.5,1.07.3,1.89.82,2.47,1.53.58.71.86,1.62.86,2.72,0,.75-.14,1.43-.43,2.04-.28.6-.67,1.11-1.19,1.53-.5.42-1.11.75-1.82.98-.71.22-1.49.34-2.35.34Z" fill="#7c7c7b" fill-rule="evenodd"/>
      <path d="M535.03,162.32c0-1.31-.11-2.41-.33-3.3-.22-.9-.51-1.61-.89-2.16-.37-.54-.79-.93-1.28-1.16-.49-.24-.99-.36-1.52-.36s-1.03.12-1.52.36c-.49.23-.91.62-1.28,1.16-.37.54-.66,1.26-.89,2.16-.22.89-.32,1.98-.32,3.3s.11,2.41.32,3.3c.22.89.52,1.6.89,2.15.37.54.79.93,1.28,1.17.49.23,1,.35,1.52.35s1.03-.12,1.52-.35c.49-.24.91-.63,1.28-1.17.38-.54.67-1.26.89-2.15.22-.89.33-1.99.33-3.3M537.25,162.32c0,1.5-.16,2.8-.49,3.91-.32,1.1-.76,2-1.32,2.72-.56.72-1.22,1.26-1.99,1.61-.76.35-1.58.53-2.45.53s-1.7-.18-2.46-.53c-.75-.35-1.41-.89-1.97-1.61-.56-.72-1-1.63-1.32-2.72-.32-1.1-.48-2.4-.48-3.91s.16-2.8.48-3.91c.32-1.1.76-2.01,1.32-2.73.56-.73,1.21-1.27,1.97-1.62.76-.35,1.58-.53,2.46-.53s1.69.18,2.45.53c.77.35,1.43.89,1.99,1.62.56.72,1,1.63,1.32,2.73.33,1.1.49,2.41.49,3.91Z" fill="#7c7c7b" fill-rule="evenodd"/>
      <path d="M553.84,153.73v.96c0,.27-.03.5-.1.67-.06.18-.12.32-.18.44l-7.11,14.35c-.1.21-.25.39-.43.54-.18.14-.43.22-.74.22h-1.52l7.22-14.17c.1-.2.21-.38.31-.55.11-.17.24-.33.37-.48h-8.96c-.14,0-.26-.05-.37-.16-.1-.11-.16-.24-.16-.37v-1.45h11.67" fill="#7c7c7b"/>
      <path d="M566.87,153.73v.96c0,.27-.03.5-.1.67-.06.18-.12.32-.18.44l-7.11,14.35c-.1.21-.25.39-.43.54-.18.14-.43.22-.74.22h-1.52l7.22-14.17c.1-.2.21-.38.31-.55.11-.17.23-.33.37-.48h-8.96c-.14,0-.26-.05-.37-.16-.1-.11-.16-.24-.16-.37v-1.45h11.67" fill="#7c7c7b"/>
      <path d="M578.63,154.66c0,.3-.1.55-.29.76-.19.19-.51.29-.97.29h-5.39l-.79,4.51c.89-.19,1.72-.29,2.48-.29.89,0,1.68.13,2.36.4.69.26,1.26.63,1.73,1.09.46.46.81,1.01,1.04,1.64.24.63.36,1.32.36,2.06,0,.91-.16,1.73-.48,2.47-.32.74-.76,1.37-1.32,1.89-.55.52-1.2.92-1.95,1.2-.75.28-1.56.42-2.43.42-.5,0-.99-.05-1.45-.15-.46-.1-.89-.23-1.29-.4-.4-.17-.77-.36-1.12-.58-.34-.22-.65-.44-.91-.68l.65-.91c.14-.21.34-.31.58-.31.15,0,.33.06.53.19.21.12.45.26.74.41.29.15.62.29,1.01.42.39.12.85.18,1.39.18.6,0,1.14-.1,1.62-.29.48-.19.89-.46,1.22-.82.34-.36.61-.79.79-1.28.18-.5.28-1.05.28-1.67,0-.54-.08-1.02-.24-1.45-.15-.43-.39-.8-.71-1.1-.31-.3-.7-.54-1.17-.71-.47-.17-1.02-.25-1.65-.25-.43,0-.88.04-1.34.11-.46.07-.94.19-1.44.35l-1.34-.39,1.39-8.03h8.14v.93" fill="#7c7c7b"/>
      <path d="M591.66,154.66c0,.3-.1.55-.29.76-.19.19-.51.29-.97.29h-5.39l-.79,4.51c.9-.19,1.72-.29,2.48-.29.89,0,1.68.13,2.36.4.69.26,1.26.63,1.73,1.09.46.46.81,1.01,1.04,1.64.24.63.36,1.32.36,2.06,0,.91-.16,1.73-.48,2.47-.32.74-.76,1.37-1.32,1.89-.55.52-1.2.92-1.95,1.2-.75.28-1.56.42-2.43.42-.5,0-.99-.05-1.45-.15-.46-.1-.89-.23-1.29-.4-.4-.17-.77-.36-1.12-.58-.34-.22-.65-.44-.91-.68l.65-.91c.14-.21.34-.31.58-.31.15,0,.33.06.53.19.21.12.46.26.74.41.29.15.62.29,1.01.42.39.12.85.18,1.39.18.6,0,1.14-.1,1.62-.29.48-.19.89-.46,1.22-.82.34-.36.61-.79.79-1.28.18-.5.28-1.05.28-1.67,0-.54-.08-1.02-.24-1.45-.15-.43-.39-.8-.71-1.1-.31-.3-.7-.54-1.17-.71-.47-.17-1.02-.25-1.65-.25-.43,0-.88.04-1.34.11-.46.07-.94.19-1.44.35l-1.34-.39,1.39-8.03h8.14v.93" fill="#7c7c7b"/>
      <path d="M599.91,161.15c.56,0,1.03-.08,1.43-.25.4-.17.72-.4.97-.68.25-.29.43-.61.54-.98.11-.37.17-.75.17-1.14s-.07-.77-.2-1.13c-.13-.35-.32-.66-.59-.92-.26-.26-.58-.47-.97-.62-.38-.15-.83-.23-1.34-.23s-.96.08-1.35.23c-.38.15-.71.36-.97.62-.26.26-.45.57-.59.92-.13.35-.19.73-.19,1.13s.06.77.17,1.14c.11.37.29.7.54.98.25.28.57.51.96.68.4.17.88.25,1.44.25M599.91,169.39c.56,0,1.06-.08,1.5-.23.45-.16.82-.38,1.13-.66.31-.29.55-.63.71-1.02.17-.4.25-.84.25-1.32,0-.59-.1-1.1-.3-1.51-.19-.42-.46-.77-.79-1.03-.33-.26-.71-.45-1.14-.57-.43-.13-.88-.19-1.35-.19s-.92.06-1.35.19c-.43.12-.82.31-1.15.57-.33.26-.59.61-.79,1.03-.19.42-.29.92-.29,1.51,0,.48.08.92.24,1.32.17.39.4.73.71,1.02.31.28.69.5,1.13.66.45.15.95.23,1.51.23ZM599.91,171.1c-.85,0-1.64-.11-2.35-.34-.71-.23-1.32-.56-1.83-.98-.51-.42-.91-.93-1.19-1.53-.28-.61-.42-1.29-.42-2.04,0-1.1.29-2.01.86-2.72.58-.72,1.4-1.23,2.47-1.53-.9-.34-1.59-.84-2.05-1.5-.45-.67-.68-1.47-.68-2.4,0-.63.12-1.22.37-1.77.25-.55.6-1.03,1.05-1.44.46-.41,1-.73,1.63-.96.64-.23,1.35-.35,2.13-.35s1.48.12,2.12.35c.64.23,1.19.55,1.64.96.46.41.81.89,1.05,1.44.25.55.37,1.14.37,1.77,0,.93-.23,1.73-.7,2.4-.46.66-1.14,1.16-2.04,1.5,1.07.3,1.89.82,2.47,1.53.58.71.86,1.62.86,2.72,0,.75-.14,1.43-.43,2.04-.28.6-.67,1.11-1.19,1.53-.5.42-1.11.75-1.82.98-.71.22-1.49.34-2.35.34Z" fill="#7c7c7b" fill-rule="evenodd"/>
      <path d="M613.43,153.54c.73,0,1.4.1,2.01.31.62.21,1.14.5,1.58.89.45.38.79.85,1.04,1.39.25.54.37,1.15.37,1.81,0,.54-.07,1.03-.22,1.46-.14.42-.34.8-.6,1.13-.26.32-.57.59-.93.82-.37.22-.78.4-1.23.54,1.12.3,1.96.79,2.52,1.49.57.7.85,1.57.85,2.61,0,.79-.15,1.5-.46,2.13-.29.63-.7,1.17-1.22,1.62-.52.44-1.13.78-1.82,1.02-.69.23-1.43.35-2.22.35-.91,0-1.69-.11-2.34-.33-.65-.23-1.19-.55-1.64-.95-.45-.4-.82-.87-1.1-1.41-.29-.55-.53-1.15-.73-1.79l.91-.38c.17-.07.34-.11.5-.11.16,0,.3.04.42.11.13.06.22.17.29.31.02.03.03.07.05.11.02.03.03.07.05.11.11.23.25.49.41.79.16.29.38.56.65.82.27.26.61.47,1.01.65.41.18.91.26,1.51.26s1.12-.1,1.57-.29c.46-.2.83-.46,1.13-.77.3-.31.53-.66.68-1.04.15-.38.23-.76.23-1.14,0-.46-.06-.89-.19-1.27-.12-.38-.34-.71-.67-.99-.32-.28-.77-.5-1.34-.66-.57-.16-1.3-.24-2.19-.24v-1.55c.73,0,1.35-.09,1.86-.24.52-.15.94-.36,1.27-.62.33-.26.56-.58.71-.95.15-.37.23-.77.23-1.22,0-.5-.08-.93-.24-1.3-.15-.37-.36-.67-.64-.91-.27-.24-.6-.42-.97-.54-.37-.12-.77-.18-1.2-.18s-.83.06-1.2.19c-.37.13-.69.31-.98.54-.28.22-.52.49-.71.82-.19.31-.34.65-.43,1.02-.06.23-.16.4-.29.5-.13.1-.29.16-.49.16h-.13s-.09-.02-.14-.02l-1.11-.19c.11-.78.33-1.47.65-2.07.32-.61.72-1.12,1.21-1.52.5-.41,1.06-.72,1.69-.92.64-.21,1.33-.32,2.06-.32" fill="#7c7c7b"/>
      <path d="M7.81,43.08l7.81-7.81,83.51,83.51c2.2,2.2,2.2,5.7.04,7.86-2.16,2.16-5.65,2.16-7.81,0L7.81,43.08" fill="#1d1d1b"/>
      <path d="M16.99,33.89l7.81-7.81,83.51,83.51c2.2,2.2,2.2,5.7.04,7.85-2.16,2.16-5.65,2.16-7.81,0L16.99,33.89" fill="#1d1d1b"/>
      <path d="M26.18,24.7l7.81-7.81,55.84,55.83-2.33,13.58,7.95-7.95,22.06,22.06c2.2,2.2,2.2,5.7.04,7.86-2.16,2.16-5.65,2.16-7.81,0L26.18,24.7" fill="#1d1d1b"/>
      <polyline points="130.99 140.13 115.82 136.07 126.92 124.96 130.99 140.13" fill="#00813a"/>
      <path d="M87.35,36.87c-6.22,6.31-10,14.95-10,24.48s3.91,18.4,10.24,24.72l5.19-10.26-3.06-2.91c-4.3-4.31-6.9-10.24-6.9-16.79,0-5.27,1.71-10.15,4.61-14.1l-.08-5.14M87.6,34.94c-2.24-3.01-3.56-6.73-3.56-10.77,0-6.16,2.55-11.31,7.29-14.57C99.18,3.77,108.92.33,119.47.33h3.39c28.55,0,54.08,13.59,70.36,34.5-2.5-.27-4.94-.4-7.51-.4-15.46,0-29.74,5.04-41.29,13.56,0,0-2.04,1.74-8.35,6.45-6.31,4.71-12.46,9.58-18.09,12.08-5.62,2.51-7.9,2.66-12.24,2.66-9.47-.59-16.94-8.41-16.94-18,0-5.3,2.28-10.06,5.92-13.37,0,0,9.35-9.37,35.65-13.55,26.3-4.18,42.34.91,42.34.91,0,0-14.12-7.27-43.78-5.4-26.45,1.67-41.33,15.14-41.33,15.14Z" fill="#95c23d" fill-rule="evenodd"/>
      <g clip-path="url(#clippath)">
        <g clip-path="url(#clippath-1)">
          <path d="M121.59,73.65c.1-.14.18-.29.24-.44.15.11.31.2.48.26-.12.14-.23.29-.31.46-.13-.11-.27-.2-.42-.28M120.29,68.44c.1-.14.18-.29.24-.44.15.11.31.2.48.26-.12.14-.23.29-.3.46-.13-.11-.27-.2-.42-.28ZM125.42,67.13c.16-.23.29-.48.4-.74.25.18.52.33.81.44-.2.23-.38.49-.51.76-.21-.18-.45-.34-.7-.46ZM126.73,72.38c.16-.23.29-.48.4-.74.25.18.52.33.81.44-.2.23-.38.49-.51.76-.21-.18-.45-.34-.7-.46ZM131.51,71.19c.35-.4.61-.88.74-1.39.44.43,1.02.72,1.65.8-.51.37-.89.89-1.08,1.48-.36-.4-.81-.7-1.3-.89ZM156.82,69.03c.71-.18,1.14-.89.96-1.6-.18-.71-.89-1.14-1.6-.96-.71.18-1.14.89-.96,1.6.18.71.89,1.14,1.6.96ZM151.74,70.78c.96-.24,1.54-1.21,1.3-2.17-.24-.96-1.21-1.54-2.17-1.3-.96.24-1.54,1.21-1.3,2.17.24.96,1.21,1.54,2.17,1.3ZM146.49,72.41c1.13-.28,1.81-1.42,1.53-2.55-.28-1.13-1.42-1.81-2.55-1.53-1.13.28-1.81,1.42-1.53,2.55.28,1.13,1.42,1.81,2.55,1.53ZM141.44,74.05c1.32-.33,2.13-1.67,1.8-3-.33-1.33-1.67-2.13-3-1.8-1.33.33-2.13,1.67-1.8,3,.33,1.33,1.67,2.13,3,1.8ZM160.69,66.17c-.05.17-.06.35-.02.53.13.53.67.86,1.2.72.53-.13.85-.67.72-1.2,0-.02,0-.04-.01-.05h-1.89ZM142.85,66.17c.46.79,1.4,1.22,2.32.98.58-.14,1.04-.51,1.31-.99h-3.64ZM137.07,66.17c-.02.27,0,.54.06.82.33,1.33,1.67,2.13,3,1.8,1.2-.3,1.98-1.43,1.87-2.63h-4.93ZM76.75,66.17l5.98,24,37.96-9.46c1.2-.4,1.99-1.21,2.42-2.16.81.54,1.84.75,2.85.5,1.16-.29,2.05-1.12,2.46-2.15.76.56,1.75.79,2.74.54,1.22-.3,2.11-1.25,2.39-2.39.7.68,1.72.99,2.73.74,1.56-.39,2.51-1.97,2.12-3.53-.3-1.19-1.29-2.03-2.44-2.18.94-.68,1.43-1.88,1.13-3.07-.07-.3-.2-.58-.35-.84h-4.94c-.12.21-.23.43-.3.65-.23-.26-.5-.48-.8-.65h-53.95Z" fill="#00813a"/>
          <path d="M118.99,63.23c.1-.14.18-.29.24-.44.15.11.31.2.49.26-.12.14-.23.29-.31.46-.13-.11-.27-.2-.42-.28M117.67,57.91c.1-.14.18-.29.24-.44.15.11.31.2.49.26-.12.14-.23.29-.31.46-.13-.11-.27-.2-.42-.28ZM116.36,52.67c.1-.14.18-.29.24-.44.15.11.31.2.49.26-.12.14-.23.29-.3.46-.13-.11-.27-.2-.42-.28ZM115.05,47.42c.1-.14.18-.29.24-.44.15.11.31.2.49.26-.12.14-.23.29-.31.46-.13-.11-.27-.2-.42-.28ZM120.18,46.11c.16-.23.29-.48.4-.74.25.18.52.33.81.43-.2.23-.38.49-.51.76-.21-.18-.45-.34-.7-.46ZM124.96,44.92c.35-.4.61-.88.74-1.39.44.43,1.02.72,1.65.8-.51.37-.89.89-1.08,1.48-.36-.4-.81-.7-1.3-.89ZM121.49,51.36c.16-.23.29-.48.4-.74.25.18.52.33.81.44-.2.23-.38.49-.51.76-.21-.18-.45-.34-.7-.46ZM126.27,50.17c.35-.4.61-.88.74-1.39.44.43,1.02.72,1.65.8-.51.36-.89.89-1.08,1.48-.36-.4-.81-.7-1.3-.89ZM122.8,56.62c.16-.23.29-.48.4-.74.25.18.52.33.81.44-.2.23-.38.49-.51.76-.21-.18-.45-.34-.7-.46ZM127.58,55.42c.35-.4.61-.88.74-1.39.44.43,1.02.72,1.65.8-.51.37-.89.89-1.08,1.48-.36-.4-.81-.7-1.3-.89ZM124.11,61.87c.16-.23.29-.48.4-.74.25.18.52.33.81.44-.2.23-.38.49-.51.76-.21-.18-.45-.34-.7-.46ZM128.89,60.68c.35-.4.61-.88.73-1.39.45.43,1.02.72,1.65.8-.51.37-.89.89-1.08,1.48-.36-.4-.81-.7-1.3-.88ZM134.89,47.78c1.33-.33,2.13-1.67,1.8-3-.33-1.33-1.67-2.13-3-1.8-1.33.33-2.13,1.67-1.8,3,.33,1.33,1.67,2.13,3,1.8ZM167.27,43.17c.22-.06.36-.28.3-.51s-.28-.36-.5-.3c-.22.06-.36.28-.3.51.06.22.28.36.51.3ZM161.96,44.78c.37-.09.6-.47.51-.84-.09-.37-.47-.6-.84-.51-.37.09-.6.47-.51.84.09.37.47.6.84.51ZM156.64,46.41c.53-.13.85-.67.72-1.2-.13-.53-.67-.86-1.2-.72-.53.13-.85.67-.72,1.2.13.53.67.86,1.2.72ZM151.58,48.01c.71-.18,1.14-.89.96-1.6-.18-.71-.89-1.14-1.6-.96-.71.18-1.14.89-.96,1.6.18.71.89,1.14,1.6.96ZM146.5,49.76c.96-.24,1.54-1.21,1.3-2.17-.24-.96-1.21-1.54-2.17-1.3-.96.24-1.54,1.21-1.3,2.17.24.96,1.21,1.54,2.17,1.3ZM141.25,51.39c1.13-.28,1.81-1.42,1.53-2.55-.28-1.13-1.42-1.81-2.55-1.53-1.13.28-1.81,1.42-1.53,2.55.28,1.13,1.42,1.81,2.55,1.53ZM136.2,53.04c1.32-.33,2.13-1.67,1.8-3-.33-1.33-1.67-2.13-3-1.8-1.33.33-2.13,1.67-1.8,3,.33,1.32,1.67,2.13,3,1.8ZM168.58,48.42c.22-.05.36-.28.3-.5-.06-.22-.28-.36-.5-.3-.22.06-.36.28-.3.5.06.22.28.36.51.3ZM163.27,50.03c.37-.09.6-.47.51-.84-.09-.37-.47-.6-.84-.51-.37.09-.6.47-.51.84.09.37.47.6.84.51ZM157.95,51.67c.53-.13.85-.67.72-1.2-.13-.53-.67-.85-1.2-.72-.53.13-.85.67-.72,1.2.13.53.67.86,1.2.72ZM152.89,53.27c.71-.18,1.14-.89.96-1.6s-.89-1.14-1.6-.96c-.71.18-1.14.89-.96,1.6.18.71.89,1.14,1.6.96ZM147.81,55.02c.96-.24,1.54-1.21,1.3-2.17-.24-.96-1.21-1.54-2.17-1.3-.96.24-1.54,1.21-1.3,2.17.24.96,1.21,1.54,2.17,1.3ZM142.56,56.65c1.13-.28,1.81-1.42,1.53-2.55-.28-1.13-1.42-1.81-2.55-1.53-1.13.28-1.81,1.42-1.53,2.55.28,1.13,1.42,1.81,2.55,1.53ZM137.51,58.29c1.33-.33,2.13-1.67,1.8-3-.33-1.33-1.67-2.13-3-1.8-1.33.33-2.13,1.67-1.8,3,.33,1.33,1.67,2.13,3,1.8ZM169.89,53.68c.22-.05.36-.28.3-.51-.06-.22-.28-.36-.51-.3-.22.06-.36.28-.3.5.06.22.28.36.51.3ZM164.57,55.29c.37-.09.6-.47.51-.84-.09-.37-.47-.6-.84-.51-.37.09-.6.47-.51.84.09.37.47.6.84.51ZM159.26,56.92c.53-.13.85-.67.72-1.2-.13-.53-.67-.85-1.2-.72-.53.13-.85.67-.72,1.2.13.53.67.85,1.2.72ZM154.2,58.52c.71-.18,1.14-.89.96-1.6-.18-.71-.89-1.14-1.6-.96-.71.18-1.14.89-.96,1.6.18.71.89,1.14,1.6.96ZM149.12,60.27c.96-.24,1.54-1.21,1.3-2.17-.24-.96-1.21-1.54-2.17-1.3-.96.24-1.54,1.21-1.3,2.17.24.96,1.21,1.54,2.17,1.3ZM143.87,61.9c1.13-.28,1.81-1.42,1.53-2.55-.28-1.13-1.42-1.81-2.55-1.53-1.13.28-1.81,1.42-1.53,2.55.28,1.13,1.42,1.81,2.55,1.53ZM138.82,63.54c1.32-.33,2.13-1.67,1.8-3-.33-1.33-1.67-2.13-3-1.8-1.33.33-2.13,1.67-1.8,3,.33,1.33,1.67,2.13,3,1.8ZM171.2,58.93c.22-.06.36-.28.3-.51-.06-.22-.28-.36-.51-.3-.22.05-.36.28-.3.5.06.22.28.36.5.3ZM165.88,60.54c.37-.09.6-.47.51-.84-.09-.37-.47-.6-.84-.51-.37.09-.6.47-.5.84.09.37.47.6.84.51ZM160.57,62.17c.53-.13.85-.67.72-1.2-.13-.53-.67-.86-1.2-.72-.53.13-.85.67-.72,1.2.13.53.67.85,1.2.72ZM155.51,63.77c.71-.18,1.14-.89.96-1.6-.18-.71-.89-1.14-1.6-.96-.71.18-1.14.89-.96,1.6.18.71.89,1.14,1.6.96ZM150.43,65.52c.96-.24,1.54-1.21,1.3-2.17-.24-.96-1.21-1.54-2.17-1.3-.96.24-1.54,1.21-1.3,2.17.24.96,1.21,1.54,2.17,1.3ZM172.51,64.18c.22-.06.36-.28.3-.5-.06-.22-.28-.36-.51-.3-.22.06-.36.28-.3.51.06.22.28.36.5.3ZM167.2,65.8c.37-.09.6-.47.51-.84-.09-.37-.47-.6-.84-.51-.37.09-.6.47-.5.84.09.37.47.6.84.51ZM162.58,66.17c-.15-.5-.67-.8-1.19-.67-.35.09-.61.35-.71.67h1.89ZM146.49,66.17c.26-.46.36-1.01.22-1.56-.28-1.13-1.42-1.81-2.55-1.53-1.13.28-1.81,1.42-1.53,2.55.05.2.13.38.22.55h3.64ZM142,66.17c-.01-.12-.03-.25-.06-.37-.33-1.33-1.67-2.13-3-1.8-1.05.26-1.77,1.15-1.86,2.17h4.93ZM148.83,42.16c.29.48.87.74,1.45.6.35-.09.63-.3.8-.59h-2.26ZM143.08,42.16c-.12.32-.14.68-.05,1.04.24.96,1.21,1.54,2.17,1.3.96-.24,1.54-1.21,1.3-2.17-.02-.06-.03-.12-.05-.17h-3.36ZM138.61,42.16c-.94.39-1.48,1.42-1.23,2.45.28,1.13,1.42,1.81,2.55,1.53s1.81-1.42,1.53-2.55c-.17-.67-.64-1.18-1.23-1.43h-1.63ZM131.58,42.16c.56.39,1.28.54,2,.36.3-.07.57-.2.81-.36h-2.8ZM70.77,42.16l5.99,24.01h53.95c-.16-.09-.33-.17-.51-.24.35-.4.61-.88.74-1.39.45.43,1.02.72,1.65.8-.32.23-.58.51-.78.83h4.94c-.46-.74-1.23-1.24-2.09-1.35.94-.68,1.43-1.88,1.13-3.07-.3-1.19-1.29-2.03-2.44-2.18.94-.68,1.43-1.88,1.13-3.07-.3-1.19-1.29-2.03-2.44-2.18.94-.67,1.43-1.88,1.13-3.07-.3-1.19-1.29-2.03-2.44-2.18.94-.67,1.43-1.88,1.13-3.07-.3-1.19-1.29-2.03-2.44-2.18.56-.4.96-.99,1.13-1.65h-16.21c-.07.09-.13.19-.18.3-.13-.11-.27-.2-.42-.28,0,0,0-.01.01-.02h-42.99Z" fill="#00813a"/>
          <path d="M112.44,36.93c.1-.14.18-.29.24-.44.15.11.31.2.49.26-.12.14-.23.29-.3.46-.13-.11-.27-.2-.42-.28M111.13,31.68c.1-.14.18-.29.24-.44.15.11.31.2.49.26-.12.14-.23.29-.31.46-.13-.11-.27-.2-.42-.28ZM109.82,26.44c.1-.14.18-.29.24-.44.15.11.31.2.49.26-.12.14-.23.29-.31.46-.13-.11-.27-.2-.42-.28ZM108.51,21.19c.1-.14.18-.29.24-.44.15.11.31.2.49.26-.12.14-.23.29-.31.46-.13-.11-.27-.2-.42-.28ZM107.12,15.9c.1-.14.18-.29.24-.44.15.11.31.2.49.26-.12.14-.23.29-.3.46-.13-.11-.27-.2-.42-.28ZM105.74,10.6c.1-.14.18-.29.24-.44.15.11.31.2.49.26-.12.14-.23.29-.31.46-.13-.11-.27-.2-.42-.28ZM104.38,5.43c.1-.14.18-.29.24-.44.15.11.31.2.48.26-.12.14-.22.29-.3.46-.13-.11-.27-.2-.42-.28ZM103.06.15c.1-.14.18-.29.24-.44.15.11.31.2.49.26-.12.14-.23.29-.31.46-.13-.11-.27-.2-.42-.28ZM115.56-2.96c-.51.37-.89.89-1.08,1.48-.36-.4-.81-.7-1.31-.89.35-.4.61-.88.74-1.39.45.43,1.02.72,1.65.8ZM109.6-1.47c-.21.23-.38.49-.51.76-.21-.18-.45-.34-.7-.46.16-.23.29-.48.4-.74.25.18.52.33.81.44ZM109.7,4.08c.16-.23.29-.48.4-.74.25.18.52.33.81.43-.2.23-.38.49-.51.76-.21-.18-.45-.34-.7-.46ZM114.48,2.89c.35-.4.61-.88.74-1.39.45.43,1.02.72,1.65.8-.51.37-.89.89-1.08,1.48-.36-.4-.81-.7-1.3-.89ZM111.01,9.33c.16-.23.3-.48.4-.74.25.18.52.33.81.43-.2.23-.38.49-.51.76-.21-.18-.45-.34-.7-.46ZM115.79,8.14c.35-.4.61-.88.74-1.39.45.43,1.02.72,1.65.8-.51.37-.89.89-1.08,1.48-.36-.4-.81-.7-1.3-.89ZM112.32,14.59c.16-.23.29-.48.4-.74.25.18.52.33.81.44-.21.23-.38.49-.51.76-.21-.18-.45-.34-.7-.46ZM117.1,13.39c.35-.4.61-.88.74-1.39.45.43,1.02.72,1.65.8-.51.37-.89.89-1.08,1.48-.36-.4-.81-.7-1.3-.89ZM113.63,19.84c.16-.23.29-.48.4-.74.25.18.52.33.81.44-.2.23-.38.49-.51.76-.21-.18-.45-.34-.7-.46ZM118.41,18.65c.35-.4.61-.88.74-1.39.44.43,1.02.72,1.65.8-.51.37-.89.89-1.08,1.48-.36-.4-.81-.7-1.3-.89ZM114.94,25.1c.16-.23.29-.48.4-.74.25.18.52.33.81.44-.2.23-.38.49-.51.76-.21-.18-.45-.34-.7-.46ZM119.72,23.9c.35-.4.61-.88.74-1.39.44.43,1.02.72,1.65.8-.51.37-.89.89-1.08,1.48-.36-.4-.81-.7-1.3-.88ZM116.25,30.35c.16-.23.29-.48.4-.74.25.18.52.33.81.44-.21.23-.38.49-.51.76-.21-.18-.45-.34-.7-.46ZM121.03,29.16c.35-.4.61-.88.74-1.4.45.43,1.02.72,1.65.8-.51.37-.89.89-1.08,1.48-.36-.4-.81-.7-1.3-.88ZM117.56,35.6c.16-.23.29-.48.4-.74.25.18.52.33.81.44-.21.23-.38.49-.51.76-.21-.18-.45-.34-.7-.46ZM122.34,34.41c.35-.4.61-.88.74-1.39.45.43,1.02.72,1.65.8-.51.37-.89.89-1.08,1.48-.36-.4-.81-.7-1.31-.89ZM118.87,40.86c.16-.23.29-.48.4-.74.25.18.52.33.81.43-.21.23-.38.49-.51.76-.21-.18-.45-.34-.7-.46ZM123.65,39.66c.35-.4.61-.88.74-1.39.45.43,1.02.72,1.65.8-.51.37-.89.89-1.08,1.48-.36-.4-.81-.7-1.31-.89ZM154.17-9.37c.22-.06.36-.28.3-.5-.06-.22-.28-.36-.51-.3-.22.05-.36.28-.3.5.05.22.28.36.5.3ZM148.86-7.76c.37-.09.6-.47.51-.84-.09-.37-.47-.6-.84-.51-.37.09-.6.47-.5.84.09.37.47.6.84.51ZM143.54-6.12c.53-.13.85-.67.72-1.2-.13-.53-.67-.86-1.2-.72-.53.13-.85.67-.72,1.2.13.53.67.85,1.2.72ZM138.49-4.52c.71-.18,1.14-.89.96-1.6-.18-.71-.89-1.14-1.6-.96-.71.18-1.14.89-.96,1.6.18.71.89,1.14,1.6.96ZM133.4-2.78c.96-.24,1.54-1.21,1.3-2.17-.24-.96-1.21-1.54-2.17-1.3-.96.24-1.54,1.21-1.3,2.17.24.96,1.21,1.54,2.17,1.3ZM128.15-1.14c1.13-.28,1.81-1.42,1.53-2.55-.28-1.13-1.42-1.81-2.55-1.53s-1.81,1.42-1.53,2.55c.28,1.13,1.42,1.81,2.55,1.53ZM123.1.5c1.33-.33,2.13-1.67,1.8-3-.33-1.33-1.67-2.13-3-1.8-1.33.33-2.13,1.67-1.8,3,.33,1.33,1.67,2.13,3,1.8ZM155.48-4.11c.22-.05.36-.28.3-.51-.06-.22-.28-.36-.51-.3-.22.06-.36.28-.3.51.06.22.28.36.51.3ZM150.17-2.5c.37-.09.6-.47.5-.84-.09-.37-.47-.6-.84-.51-.37.09-.6.47-.5.84.09.37.47.6.84.51ZM144.85-.87c.53-.13.85-.67.72-1.2-.13-.53-.67-.86-1.2-.72-.53.13-.85.67-.72,1.2.13.53.67.85,1.2.72ZM139.8.73c.71-.18,1.14-.89.96-1.6-.18-.71-.89-1.14-1.6-.96-.71.18-1.14.89-.96,1.6.18.71.89,1.14,1.6.96ZM134.71,2.48c.96-.24,1.54-1.21,1.3-2.17-.24-.96-1.21-1.54-2.17-1.3-.96.24-1.54,1.21-1.3,2.17.24.96,1.21,1.54,2.17,1.3ZM129.46,4.11c1.13-.28,1.81-1.42,1.53-2.55-.28-1.13-1.42-1.81-2.55-1.53-1.13.28-1.81,1.42-1.53,2.55.28,1.13,1.42,1.81,2.55,1.53ZM124.41,5.75c1.33-.33,2.13-1.67,1.8-3-.33-1.33-1.67-2.13-3-1.8-1.33.33-2.13,1.67-1.8,3,.33,1.33,1.67,2.13,3,1.8ZM156.79,1.14c.22-.06.36-.28.3-.51-.06-.22-.28-.36-.5-.3-.22.06-.36.28-.3.5.06.22.28.36.51.3ZM151.48,2.75c.37-.09.6-.47.5-.84-.09-.37-.47-.6-.84-.51-.37.09-.6.47-.51.84.09.37.47.6.84.51ZM146.16,4.38c.53-.13.86-.67.72-1.2-.13-.53-.67-.85-1.2-.72-.53.13-.85.67-.72,1.2.13.53.67.85,1.2.72ZM141.11,5.98c.71-.18,1.14-.89.96-1.6-.18-.71-.89-1.14-1.6-.96-.71.18-1.14.89-.96,1.6.18.71.89,1.14,1.6.96ZM136.02,7.73c.96-.24,1.54-1.21,1.3-2.17-.24-.96-1.21-1.54-2.17-1.3-.96.24-1.54,1.21-1.3,2.17.24.96,1.21,1.54,2.17,1.3ZM130.77,9.37c1.13-.28,1.81-1.42,1.53-2.55-.28-1.13-1.42-1.81-2.55-1.53-1.13.28-1.81,1.42-1.53,2.55.28,1.13,1.42,1.81,2.55,1.53ZM125.72,11.01c1.33-.33,2.13-1.67,1.8-3-.33-1.33-1.67-2.13-3-1.8-1.33.33-2.13,1.67-1.8,3,.33,1.33,1.67,2.13,3,1.8ZM158.1,6.39c.22-.06.36-.28.3-.51-.06-.22-.28-.36-.5-.3-.22.06-.36.28-.3.5.06.22.28.36.5.3ZM152.79,8c.37-.09.6-.47.51-.84-.09-.37-.47-.6-.84-.51-.37.09-.6.47-.51.84.09.37.47.6.84.51ZM147.47,9.64c.53-.13.86-.67.72-1.2-.13-.53-.67-.85-1.2-.72-.53.13-.85.67-.72,1.2.13.53.67.86,1.2.72ZM142.42,11.24c.71-.18,1.14-.89.96-1.6-.18-.71-.89-1.14-1.6-.96-.71.18-1.14.89-.96,1.6.18.71.89,1.14,1.6.96ZM137.33,12.98c.96-.24,1.54-1.21,1.3-2.17-.24-.96-1.21-1.54-2.17-1.3-.96.24-1.54,1.21-1.3,2.17.24.96,1.21,1.54,2.17,1.3ZM132.08,14.62c1.13-.28,1.81-1.42,1.53-2.55-.28-1.13-1.42-1.81-2.55-1.53-1.13.28-1.81,1.42-1.53,2.55.28,1.13,1.42,1.81,2.55,1.53ZM127.03,16.26c1.33-.33,2.13-1.67,1.8-3-.33-1.33-1.67-2.13-3-1.8-1.33.33-2.13,1.67-1.8,3,.33,1.32,1.67,2.13,3,1.8ZM159.41,11.65c.22-.06.36-.28.3-.5s-.28-.36-.51-.3c-.22.06-.36.28-.3.51.05.22.28.36.5.3ZM154.1,13.26c.37-.09.6-.47.51-.84-.09-.37-.47-.6-.84-.51-.37.09-.6.47-.51.84.09.37.47.6.84.51ZM148.78,14.89c.53-.13.85-.67.72-1.2-.13-.53-.67-.85-1.2-.72-.53.13-.85.67-.72,1.2.13.53.67.86,1.2.72ZM143.73,16.49c.71-.18,1.14-.89.96-1.6-.18-.71-.89-1.14-1.6-.96-.71.18-1.14.9-.96,1.6.18.71.89,1.14,1.6.96ZM138.64,18.24c.96-.24,1.54-1.21,1.3-2.17-.24-.96-1.21-1.54-2.17-1.3-.96.24-1.54,1.21-1.3,2.17.24.96,1.21,1.54,2.17,1.3ZM133.39,19.87c1.13-.28,1.81-1.42,1.53-2.55-.28-1.13-1.42-1.81-2.55-1.53-1.13.28-1.81,1.42-1.53,2.55.28,1.13,1.42,1.81,2.55,1.53ZM128.34,21.51c1.32-.33,2.13-1.67,1.8-3-.33-1.33-1.67-2.13-3-1.8-1.33.33-2.13,1.67-1.8,3,.33,1.33,1.67,2.13,3,1.8ZM160.72,16.9c.22-.06.36-.28.3-.51-.06-.22-.28-.36-.51-.3-.22.06-.36.28-.3.51.06.22.28.36.51.3ZM155.41,18.51c.37-.09.6-.47.51-.84-.09-.37-.47-.6-.84-.51-.37.09-.6.47-.51.84.09.37.47.6.84.51ZM150.09,20.14c.53-.13.85-.67.72-1.2-.13-.53-.67-.85-1.2-.72-.53.13-.85.67-.72,1.2.13.53.67.85,1.2.72ZM145.04,21.74c.71-.18,1.14-.89.96-1.6-.18-.71-.89-1.14-1.6-.96-.71.18-1.14.89-.96,1.6.18.71.89,1.14,1.6.96ZM139.95,23.49c.96-.24,1.54-1.21,1.3-2.17-.24-.96-1.21-1.54-2.17-1.3-.96.24-1.54,1.21-1.3,2.17.24.96,1.21,1.54,2.17,1.3ZM134.7,25.13c1.13-.28,1.81-1.42,1.53-2.55s-1.42-1.81-2.55-1.53c-1.13.28-1.81,1.42-1.53,2.55.28,1.13,1.42,1.81,2.55,1.53ZM129.65,26.77c1.32-.33,2.13-1.67,1.8-3-.33-1.33-1.67-2.13-3-1.8-1.33.33-2.13,1.67-1.8,3,.33,1.33,1.67,2.13,3,1.8ZM162.03,22.15c.22-.06.36-.28.3-.51-.06-.22-.28-.36-.51-.3-.22.06-.36.28-.3.5.06.22.28.36.5.3ZM156.72,23.77c.37-.09.6-.47.51-.84-.09-.37-.47-.6-.84-.51-.37.09-.6.47-.51.84.09.37.47.6.84.51ZM151.4,25.4c.53-.13.85-.67.72-1.2-.13-.53-.67-.86-1.2-.72-.53.13-.86.67-.72,1.2.13.53.67.85,1.2.72ZM146.35,27c.71-.18,1.14-.89.96-1.6-.18-.71-.89-1.14-1.6-.96-.71.18-1.14.89-.96,1.6.18.71.89,1.14,1.6.96ZM141.26,28.75c.96-.24,1.54-1.21,1.3-2.17-.24-.96-1.21-1.54-2.17-1.3-.96.24-1.54,1.21-1.3,2.17.24.96,1.21,1.54,2.17,1.3ZM136.01,30.38c1.13-.28,1.81-1.42,1.53-2.55-.28-1.13-1.42-1.81-2.55-1.53-1.13.28-1.81,1.42-1.53,2.55.28,1.13,1.42,1.81,2.55,1.53ZM130.96,32.02c1.33-.33,2.13-1.67,1.8-3-.33-1.33-1.67-2.13-3-1.8-1.32.33-2.13,1.67-1.8,3,.33,1.33,1.67,2.13,3,1.8ZM163.34,27.41c.22-.06.36-.28.3-.5-.06-.22-.28-.36-.5-.3-.22.05-.36.28-.3.5.06.22.28.36.5.3ZM158.03,29.02c.37-.09.6-.47.51-.84-.09-.37-.47-.6-.84-.51-.37.09-.6.47-.51.84.09.37.47.6.84.51ZM152.71,30.65c.53-.13.85-.67.72-1.2-.13-.53-.67-.86-1.2-.72-.53.13-.85.67-.72,1.2.13.53.67.85,1.2.72ZM147.66,32.25c.71-.18,1.14-.89.96-1.6-.18-.71-.89-1.14-1.6-.96-.71.18-1.14.89-.96,1.6.18.71.89,1.14,1.6.96ZM142.57,34c.96-.24,1.54-1.21,1.3-2.17s-1.21-1.54-2.17-1.3c-.96.24-1.54,1.21-1.3,2.17.24.96,1.21,1.54,2.17,1.3ZM137.32,35.63c1.13-.28,1.81-1.42,1.53-2.55-.28-1.13-1.42-1.81-2.55-1.53s-1.81,1.42-1.53,2.55c.28,1.13,1.42,1.81,2.55,1.53ZM132.27,37.27c1.33-.33,2.13-1.67,1.8-3-.33-1.32-1.67-2.13-3-1.8-1.33.33-2.13,1.67-1.8,3,.33,1.33,1.67,2.13,3,1.8ZM164.65,32.66c.22-.06.36-.28.3-.5-.06-.22-.28-.36-.5-.3-.22.06-.36.28-.3.51.05.22.28.36.5.3ZM159.34,34.27c.37-.09.6-.47.51-.84-.09-.37-.47-.6-.84-.51-.37.09-.6.47-.51.84.09.37.47.6.84.51ZM154.02,35.9c.53-.13.85-.67.72-1.2-.13-.53-.67-.85-1.2-.72-.53.13-.85.67-.72,1.2.13.53.67.85,1.2.72ZM148.97,37.51c.71-.18,1.14-.9.96-1.6-.18-.71-.89-1.14-1.6-.96-.71.18-1.14.89-.96,1.6.18.71.89,1.14,1.6.96ZM143.88,39.25c.96-.24,1.54-1.21,1.3-2.17-.24-.96-1.21-1.54-2.17-1.3-.96.24-1.54,1.21-1.3,2.17.24.96,1.21,1.54,2.17,1.3ZM138.63,40.89c1.13-.28,1.81-1.42,1.53-2.55-.28-1.13-1.42-1.81-2.55-1.53s-1.81,1.42-1.53,2.55c.28,1.13,1.42,1.81,2.55,1.53ZM165.96,37.92c.22-.05.36-.28.3-.51-.06-.22-.28-.36-.51-.3-.22.06-.36.28-.3.51.06.22.28.36.51.3ZM160.65,39.53c.37-.09.6-.47.51-.84-.09-.37-.47-.6-.84-.51-.37.09-.6.47-.51.84.09.37.47.6.84.51ZM155.33,41.16c.53-.13.85-.67.72-1.2-.13-.53-.67-.86-1.2-.72-.53.13-.85.67-.72,1.2.13.53.67.85,1.2.72ZM121.79-4.76c1.33-.33,2.13-1.67,1.8-3-.33-1.33-1.67-2.13-3-1.8-1.33.33-2.13,1.67-1.8,3,.33,1.33,1.67,2.13,3,1.8ZM126.84-6.39c1.13-.28,1.81-1.42,1.53-2.55-.28-1.13-1.42-1.81-2.55-1.53-1.13.28-1.81,1.42-1.53,2.55.28,1.13,1.42,1.81,2.55,1.53ZM132.09-8.03c.96-.24,1.54-1.21,1.3-2.17-.24-.96-1.21-1.54-2.17-1.3-.96.24-1.54,1.21-1.3,2.17.24.96,1.21,1.54,2.17,1.3ZM137.18-9.78c.71-.18,1.14-.89.96-1.6-.18-.71-.89-1.14-1.6-.96-.71.18-1.14.89-.96,1.6.18.71.89,1.14,1.6.96ZM142.23-11.38c.53-.13.85-.67.72-1.2-.13-.53-.67-.86-1.2-.72-.53.13-.85.67-.72,1.2.13.53.67.85,1.2.72ZM147.55-13.01c.37-.09.6-.47.51-.84-.09-.37-.47-.6-.84-.51-.37.09-.6.47-.51.84.09.37.47.6.84.51ZM152.86-14.62c.22-.06.36-.28.3-.51-.06-.22-.28-.36-.51-.3-.22.05-.36.28-.3.51.05.22.28.36.5.3ZM151.08,42.16c.18-.29.25-.65.16-1.01-.18-.71-.89-1.14-1.6-.96s-1.14.89-.96,1.6c.03.13.08.26.15.37h2.25ZM146.44,42.16c-.31-.85-1.21-1.35-2.11-1.13-.6.15-1.05.58-1.25,1.12h3.36ZM140.24,42.16c-.4-.17-.86-.22-1.32-.1-.11.03-.21.06-.3.1h1.63ZM134.39,42.16c.82-.57,1.25-1.61,1-2.64-.33-1.33-1.67-2.13-3-1.8-1.33.33-2.13,1.67-1.8,3,.15.61.52,1.11,1,1.44h2.8ZM113.76,42.16c.09-.14.17-.28.23-.43.15.11.31.2.49.26-.05.05-.09.11-.13.16h16.21c.12-.45.12-.94,0-1.42-.3-1.19-1.29-2.03-2.44-2.18.94-.67,1.43-1.88,1.13-3.07-.3-1.19-1.29-2.03-2.44-2.18.94-.67,1.43-1.88,1.13-3.07-.3-1.19-1.29-2.03-2.44-2.18.94-.67,1.43-1.88,1.13-3.07-.3-1.19-1.29-2.03-2.44-2.18.94-.68,1.43-1.88,1.13-3.07-.3-1.19-1.29-2.03-2.44-2.18.94-.67,1.43-1.88,1.13-3.07-.3-1.19-1.29-2.03-2.44-2.18.94-.67,1.43-1.88,1.13-3.07-.3-1.19-1.29-2.03-2.44-2.18.94-.67,1.43-1.88,1.13-3.07-.3-1.19-1.29-2.03-2.44-2.18.94-.67,1.43-1.88,1.13-3.07-.3-1.19-1.29-2.03-2.44-2.18.94-.67,1.43-1.88,1.13-3.07-.39-1.56-1.97-2.51-3.53-2.12-1.01.25-1.77,1.01-2.07,1.94-.79-.87-2.01-1.29-3.23-.99-.98.25-1.75.91-2.16,1.76-.85-.72-2.02-1.03-3.18-.74-1.02.25-1.82.92-2.29,1.78-.92-.71-2.14-1.01-3.35-.71l-.37.11L61.2,3.78l9.57,38.38h42.99Z" fill="#00813a"/>
        </g>
      </g>
      <rect x="131.41" y="139.94" width="88.08" height="1.09" fill="#00813a"/>
      <path d="M125.8,140.15c-.23-.39-.46-.78-.69-1.17l-8.81-2.39v3.55h9.49M124.64,138.15c-1.26-2.26-2.4-4.59-3.41-6.99l-4.77,4.77,8.18,2.22ZM120.94,130.48l-4.64-4.67v9.3l4.64-4.64ZM120.3,128.85c-.44-1.15-.84-2.31-1.22-3.49h-2.27l3.49,3.49ZM119.79,125.36c.5,1.56,1.06,3.09,1.67,4.6l4.6-4.6h-6.27ZM122.2,131.71c1,2.3,2.13,4.53,3.36,6.69l4.57,1.24-7.93-7.93ZM126.05,139.24c.18.3.36.61.55.91h2.81l-3.36-.91ZM49.38,140.15c-3.21-4.63-5.99-9.58-8.29-14.79h-2.12v14.79h10.41ZM40.79,124.68c-.65-1.5-1.26-3.03-1.82-4.57v4.57h1.82ZM41.83,125.36c2.32,5.21,5.13,10.16,8.38,14.79h3.55v-14.79h-11.93ZM115.62,140.15v-3.39l-3.39,3.39h3.39ZM115.62,135.71v-10.34h-14.68l-.11.11v6.22l14.79,4.01ZM100.84,132.4v7.75h10.44l3.87-3.87-14.31-3.88ZM100.16,140.15v-7.93l-3.76-1.02.53.53-.48.48-1.17-1.17-2.3,2.3-.48-.48,2.13-2.13-9.26-2.51v11.94h14.79ZM100.16,131.51v-5.36l-4.21,4.21,4.21,1.14ZM100.16,124.47v-3.38c-.22-.64-.57-1.23-1.01-1.73l-3.08,3.08h1.33v.68h-1.76v1.57h4.44l.08-.22ZM85.37,121.13v3.56h3.56l-3.56-3.56ZM85.37,125.36v2.14l8.75,2.37-4.51-4.51h-4.24ZM84.69,140.15v-12.13l-1.54-.42.18-.66,1.36.37v-1.95h-14.79v14.79h14.79ZM54.44,140.15h14.79v-14.79h-14.79v14.79ZM23.51,140.15h14.79v-14.79h-14.79v14.79ZM8.04,140.15h14.79v-14.79h-14.79v14.79ZM131.09,125.36h-3.67l3.67,13.81v-13.81ZM99.75,125.36h-8.9c.89,1.53,2.55,2.56,4.45,2.56,1.39,0,2.65-.55,3.58-1.45l.12-.12c.29-.3.54-.63.75-1ZM93.82,124.68h1.13v-1.13l-1.13,1.13ZM127.7,124.68h3.39v-3.39l-3.39,3.39ZM121.92,130.47l8.39,8.39-3.52-13.25-4.86,4.86ZM93.54,128.34l1.74,1.73,1.72-1.72c-.54.17-1.11.25-1.71.25s-1.2-.09-1.75-.27ZM102.59,122.76l-1.74-1.74c.17.55.27,1.14.27,1.75s-.09,1.17-.25,1.71l1.72-1.72ZM102.75,119.15l1.72,1.73,1.71-1.71c-.54.16-1.11.25-1.7.25s-1.19-.09-1.74-.26ZM185.51,119.14h.68v32h-.68v-32ZM8.04,119.14v5.54h14.79v-5.54h.68v5.54h14.79v-5.54h1.05c.67,1.88,1.4,3.73,2.19,5.54h12.22v-5.54h.68v5.54h14.79v-5.54h.68v5.54h14.79v-4.24l-1.3-1.3h.96l.34.34v-.34h.68v1.02l4.36,4.37c-.17-.55-.27-1.14-.27-1.75,0-1.37.48-2.63,1.27-3.63h.91c-.93.93-1.5,2.21-1.5,3.63,0,.67.13,1.32.36,1.9h2.6l-.12-.12,1.44-1.44h-1.23v-.68h1.76v-1.76h.68v1.23l2.77-2.77h1.53l.23.23v-.23h.68v.91l2.23,2.23.93-.93-2.22-2.21h5.39l-2.21,2.21,1.17,1.17-.48.48-1.17-1.17-.93.93,1.17,1.17-.48.48-1.17-1.17-1.44,1.44h13.54l-5.54-5.54h.96l5.03,5.03v-5.03h.68v5.54h2.56c-.56-1.82-1.05-3.66-1.46-5.54h.7c.42,1.87.91,3.72,1.48,5.54h6.96l-1.47-5.54h.7l1.37,5.15,3.96-3.96v-1.19h.68v.51l.51-.51h.48l.24.24-1.23,1.23v19.47l1.11.3-.18.66-.29-.08,3.56,3.55-.48.48-3.88-3.88.11.41-.66.17-.23-.88h-3.81c.97,1.55,2,3.06,3.09,4.52l-.54.41c-1.18-1.59-2.3-3.23-3.35-4.92h-14.66l-.79.79-.48-.48.31-.31h-59.9c1.83,2.56,3.79,5.01,5.88,7.36l-.51.45c-2.21-2.48-4.28-5.09-6.21-7.81H7.36v-21.68h.68Z" fill="#bdbcbc"/>
      <path d="M116.38,94.76l.04-.33h-.12v.33h.08M116.52,93.75c.2-1.38.45-2.74.73-4.08h-.94v4.08h.22ZM117.94,89.67c-.29,1.35-.53,2.71-.74,4.08h1.1l-.28-1.05.66-.17.32,1.22h3.51v-3.71l-.84.84-.48-.48.74-.74h-3.99ZM117.11,94.43l-.05.37c.51.03,1.02.04,1.54.05l-.11-.42h-1.38ZM116.97,95.48l-.02.19c.35-.05.69-.1,1.03-.15-.34,0-.67-.02-1.01-.04ZM116.87,96.37c-.1.89-.18,1.78-.24,2.68l4.21,4.21-1.92-7.22c-.67.13-1.36.24-2.05.33ZM116.56,100.13c-.07,1.29-.11,2.6-.11,3.91l2.36.02c-.11-1.64-.98-3.06-2.26-3.93ZM116.45,104.74c.01,1.31.06,2.61.15,3.9.23-.16.46-.34.66-.54l.12-.12c.82-.85,1.36-1.98,1.44-3.24h-2.36ZM123.2,89.67v4.08h1.35c2.31-.87,4.49-1.98,6.54-3.3v-.78h-7.89ZM35.75,109.22c-1.09-4.79-1.79-9.73-2.07-14.79h-10.17v14.79h12.25ZM34.36,94.43c.29,5.05.99,9.99,2.09,14.79h1.84v-14.79h-3.93ZM36.61,109.9c.49,2.07,1.05,4.11,1.68,6.11v-6.11h-1.68ZM113.08,94.43c.84.11,1.69.21,2.54.27v-.27h-2.54ZM119.31,94.86h.16c.58,0,1.15-.01,1.72-.03.47-.12.93-.26,1.39-.4h-3.39l.11.43ZM124.13,94.63c.58-.06,1.15-.12,1.73-.2h-1.17l-.55.2ZM129.68,93.75c.47-.11.95-.22,1.42-.34v-2.16c-1.5.95-3.08,1.78-4.73,2.5h3.31ZM129.75,94.43c-2.74.6-5.56.97-8.46,1.08-.56.15-1.13.28-1.71.4l2.07,7.79,3.68-3.68.48.48-3.56,3.56h8.84v-9.63h-1.34ZM115.62,95.39c-1.01-.08-2.01-.19-3-.33l.9.9c.7-.02,1.4-.07,2.09-.14v-.44ZM111.49,94.88c-.77-.13-1.54-.28-2.3-.45h-7.15c3.24,1.01,6.69,1.55,10.27,1.55h.28s-1.1-1.1-1.1-1.1ZM106.48,93.75c-1.93-.55-3.81-1.21-5.64-1.98v1.98h5.64ZM115.62,109.16v-4.43h-1.61v1.76h-.68v-1.33l-3.08,3.08c.47.42,1.01.75,1.61.97h3.61l.14-.06ZM115.62,104.06v-1.17l-1.18,1.17h1.18ZM115.62,101.92v-2.29c-.6-.25-1.26-.38-1.95-.38-2.84,0-5.15,2.3-5.15,5.15,0,1.29.47,2.46,1.25,3.36l3.03-3.02h-1.23v-.68h1.76v-1.76h.68v1.23l1.61-1.61ZM115.62,98.05v-1.54c-.48.04-.96.08-1.44.1l1.44,1.44ZM100.84,94.75v4.09l7.27,7.27c-.17-.54-.26-1.12-.26-1.72,0-3.22,2.61-5.83,5.83-5.83.62,0,1.22.1,1.78.28l-2.2-2.2c-.32,0-.63.01-.95.01-4.02,0-7.88-.67-11.47-1.91ZM100.84,99.8v1.85l7.53,7.53.93-.93-8.45-8.45ZM100.84,102.62v6.43c1-.8,2.27-1.28,3.65-1.28.62,0,1.21.1,1.77.27l-5.42-5.42ZM100.84,110.35v6.36l2.78-2.78h-1.23v-.68h1.35l-2.9-2.9ZM100.16,116.37v-5.57c-.52.8-.82,1.76-.82,2.79s.3,1.98.82,2.79ZM100.16,108.71v-6.77l-7.51-7.51h-6.77l14.28,14.28ZM100.16,100.98v-1.85l-4.7-4.7h-1.85l6.55,6.55ZM100.16,98.16v-3.65l-.22-.08h-3.52l3.74,3.73ZM85.37,87.15v6.6h6.6l-6.6-6.6ZM85.37,94.88v6.89l7.44,7.45h6.89l-14.33-14.33ZM85.37,102.73v1.85l4.63,4.63h1.85l-6.48-6.48ZM85.37,105.54v3.67h3.67l-3.67-3.67ZM84.69,109.22v-4.35l-10.43-10.43h-4.35v10.27l4.52,4.52h10.27ZM84.69,103.9v-1.85l-7.62-7.62h-1.85l9.47,9.48ZM84.69,101.09v-6.66h-6.66l6.66,6.66ZM69.9,87.27v1.85l4.63,4.63h1.85l-6.48-6.49ZM69.9,90.08v3.67h3.67l-3.67-3.67ZM69.9,105.66v3.56h3.56l-3.56-3.56ZM69.23,109.22v-4.24l-10.55-10.55h-4.24v14.79h14.79ZM69.23,104.02v-9.59h-9.59l9.59,9.59ZM54.44,90.19v3.56h3.56l-3.56-3.56ZM38.97,109.22h14.79v-14.79h-14.79v14.79ZM8.04,109.22h14.79v-14.79h-14.79v14.79ZM110.93,109.9h-1.85l3.19,3.19.93-.93-2.26-2.26ZM107.65,109.9h-6.3l2.8,2.8v-1.21h.68v1.23l2.82-2.82ZM99.98,109.9h-6.48l5.43,5.43c-.17-.55-.26-1.13-.26-1.73,0-1.4.49-2.69,1.32-3.69ZM101.77,109.22h5.44c-.79-.49-1.72-.78-2.72-.78s-1.93.28-2.72.78ZM109.29,109.22h.96l-.48-.48-.48.48ZM117.1,109.22h5.32l-1.12-4.21-3.44,3.44-.13.13-.64.64ZM123.12,109.22h7.97v-4.48h-8.78l.8.8-.48.48-.49-.49.98,3.69ZM95.74,93.75h2.51c-1.94-.84-3.79-1.86-5.54-3.02l3.02,3.02ZM107.92,117.43l-3.09-3.09v1.35h-.68v-1.33l-3.08,3.08c.91.81,2.1,1.3,3.42,1.3s2.52-.49,3.43-1.3ZM105.38,113.93l3.03,3.02c.77-.9,1.23-2.08,1.23-3.36s-.49-2.51-1.3-3.42l-3.08,3.08h1.33v.68h-1.21ZM100.09,117.45l-7.56-7.56h-1.85l8.48,8.48.93-.93ZM111.79,113.57l-1.75-1.75c.18.56.27,1.15.27,1.77s-.09,1.16-.25,1.7l1.72-1.72ZM111.96,109.96l1.72,1.71,1.71-1.71c-.54.16-1.11.25-1.7.25s-1.18-.09-1.72-.26ZM119.25,106.1l1.37-1.37h-1.12c-.03.47-.11.93-.24,1.37ZM119.49,104.06h1.18l-1.44-1.45c.15.46.24.94.27,1.45ZM132.28,119.14l.24-.24.24.24h-.48ZM8.04,87.14v6.61h14.79v-6.61h.68v6.61h10.14c-.07-1.47-.11-2.94-.11-4.42,0-.73,0-1.46.03-2.19h.68c-.02.73-.03,1.46-.03,2.19,0,1.48.04,2.96.11,4.42h3.97v-6.61h.68v6.61h14.79v-4.24l-2.37-2.37h.96l1.41,1.41v-1.41h.68v2.09l4.52,4.52h10.27v-4.35l-2.26-2.26h.96l1.3,1.3v-1.3h1.52l6.61,6.61h6.89l-6.61-6.61h.96l6.1,6.1v-6.1h2.32l-.34.34.59.59v-.93h.68v1.44h-.16l5.16,5.17h1.85l-6.61-6.61h1.03c3.15,2.82,6.83,5.08,10.86,6.61h.09v-2.28c-2.72-1.21-5.31-2.66-7.74-4.33h1.21c2.07,1.36,4.25,2.56,6.53,3.58v-3.59h.68v3.89c2.69,1.16,5.51,2.08,8.43,2.72h1.1l-6.61-6.61h.96l6.61,6.61h4.3v-6.61h.68v1.85h1.09c.14-.62.28-1.23.43-1.84h.7c-.15.61-.3,1.23-.44,1.84h4.43v-1.85h.68v1.26l1.26-1.26h.96l-1.85,1.85h7.51v-1.85h.68v2.85c1.28-.87,2.5-1.83,3.65-2.86h1.01c-1.44,1.35-3,2.58-4.65,3.68v2.42c4.87-1.31,9.42-3.39,13.53-6.09h1.22c-4.43,3.05-9.41,5.37-14.75,6.79v10.12h53.34l-16.92-16.91h.96l16.35,16.35v-16.35h.68v16.91h7.23v.68h-6.66l3.05,3.05-.48.48-3.13-3.13v14.01h-.68v-14.41h-53.74v14.41h-.68v-9.24h-7.79l2.46,9.24h-.7l-2.46-9.24h-5.91c.26,3.15.74,6.24,1.41,9.25h-.7c-.46-2.11-.83-4.25-1.1-6.42v6.42h-.68v-8.45l-1.47,1.47,1.17,1.17-.48.48-1.17-1.17-.93.93,1.17,1.17-.48.48-1.17-1.17-3.39,3.39,1.71,1.71h-.96l-1.23-1.23-1.23,1.23h-5.39l-.94-.94v.94h-.68v-.79l-.51.51.28.28h-1.53l.26-.26c-.9-.78-2.08-1.25-3.37-1.25-1.43,0-2.72.58-3.65,1.52h-.91c1.07-1.34,2.71-2.2,4.56-2.2.61,0,1.2.09,1.75.27l-7.33-7.32h-4.35v9.24h-.68v-9.24h-9.59l9.25,9.24h-.96l-9.25-9.24h-4.24v9.24h-.68v-9.24h-14.79v9.24h-.68v-9.24h-14.79v8.18c.12.35.25.71.37,1.06h-1.05s0-.95,0-.95c-.92-2.71-1.72-5.48-2.38-8.29h-12.4v9.24h-.68v-9.24h-14.79v9.24h-.68v-32h.68Z" fill="#bdbcbc"/>
      <path d="M124.2,63.5c-1.42.91-2.84,1.75-4.26,2.48v5.9h-.68v-5.55c-.38.19-.76.37-1.14.54-.55.25-1.16.49-1.81.72v10.03c2.48-1.11,4.72-2.63,6.66-4.49,1.66-3.37,3.59-6.58,5.75-9.62h-4.51M115.62,67.8c-1.01.34-2.11.65-3.24.95-.77.24-1.55.43-2.36.57-2.18.49-4.41.92-6.46,1.26l-2.72,2.73v4.97h13.77c.34-.12.68-.25,1.02-.39v-10.09ZM102.41,70.78c-.54.09-1.07.17-1.57.24v1.33l1.57-1.58ZM100.16,71.12l-.15.02-.1-.67.24-.04v-2.09c-2.7-1.05-5.08-2.73-6.99-4.84h-5.24v6.83l.11.14,4.31,4.31c1.16.89,2.4,1.68,3.72,2.35l4.09-4.09v-1.92ZM100.84,70.33c.59-.09,1.42-.22,2.42-.39l.58-.58c-1.03-.17-2.03-.43-3-.76v1.73ZM104.42,69.73l1-.18c-.25-.02-.5-.04-.74-.07l-.26.26ZM109.49,68.72c1.04-.23,2-.45,2.91-.69,1.13-.37,2.21-.86,3.23-1.44v-1.3l-1.8-1.8h-1.2l-.03,2.79h-.68s.03-2.79.03-2.79h-1.29l-5.35,5.35c.51.04,1.03.07,1.56.07.89,0,1.77-.07,2.63-.19ZM117.01,66.54c.76-.3,1.5-.64,2.25-1v-.75c-.7.64-1.45,1.23-2.25,1.76ZM119.94,65.2c.95-.49,1.93-1.05,2.96-1.7h-2.36c-.2.22-.4.43-.6.64v1.06ZM120.66,78.28c.48-1.21.99-2.4,1.54-3.58-1.73,1.45-3.67,2.65-5.76,3.58h4.22ZM128.47,65.03c-1.38,2.02-2.66,4.12-3.82,6.29,1.58-1.87,2.88-3.99,3.82-6.29ZM123.52,73.52c-.76,1.56-1.47,3.14-2.12,4.76h9.69v-14.79h-1.34c-1.23,3.85-3.4,7.28-6.24,10.02ZM119.26,63.85v-.35h-2.95v2.69c1.07-.67,2.06-1.46,2.95-2.34ZM34.21,78.28c.3-2.41.69-4.79,1.18-7.14l-7.65-7.65h-4.24v14.79h10.71ZM35.56,70.35c.5-2.32,1.09-4.61,1.77-6.85h-8.62l6.85,6.85ZM38.04,63.5c-.74,2.43-1.38,4.91-1.91,7.43l2.16,2.16v-9.59h-.25ZM35.96,71.72c-.43,2.16-.79,4.35-1.07,6.56h3.4v-4.24l-2.33-2.33ZM75.07,63.5c.86,2.42,1.9,4.74,3.12,6.96-.6-2.24-.98-4.57-1.12-6.96h-2.01ZM79.69,72.98c1.18,1.86,2.49,3.63,3.91,5.3h1.09v-10.21l-4.58-4.58h-2.36c.2,3.31.87,6.49,1.93,9.48ZM84.19,78.96l.5.56v-.56h-.5ZM85.37,80.25c.61.64,1.24,1.26,1.88,1.87v-3.15h-1.88v1.28ZM87.93,82.74c.44.4.89.79,1.35,1.17l4.95-4.95h-6.29v3.78ZM88.8,84.39c-.29-.24-.58-.49-.86-.74v1.61l.86-.86ZM87.25,83.04c-.64-.59-1.27-1.19-1.88-1.82v1.88c.6.74,1.23,1.45,1.88,2.14v-2.21ZM84.69,80.52c-.48-.51-.95-1.03-1.4-1.55h-.79c.67,1.13,1.4,2.23,2.2,3.27v-1.72ZM82.71,78.28c-.62-.74-1.21-1.5-1.79-2.28.36.78.76,1.54,1.17,2.28h.61ZM79.08,73.28c-1.93-3.05-3.52-6.33-4.73-9.79h-4.44v4.41l10.37,10.37h1.05c-.87-1.6-1.63-3.27-2.25-5ZM115.62,64.34v-.84h-.84l.84.84ZM100.84,63.5v4.37c1.15.41,2.35.71,3.6.88l5.26-5.26h-8.85ZM100.16,82.58v-3.15c-.51-.14-1.01-.3-1.5-.47h-2.12l3.62,3.62ZM100.16,78.28v-4.29l-3.45,3.44c.67.32,1.36.6,2.07.85h1.38ZM100.16,67.61v-4.11h-6.06c1.7,1.76,3.76,3.17,6.06,4.11ZM85.37,63.5v2.59c.54,1.15,1.17,2.25,1.88,3.3v-5.88h-1.88ZM85.37,67.6v.2l.25.25-.25-.45ZM85.37,68.76v9.53h1.88v-7.65l-1.88-1.88ZM85.37,84.34v1.85l.12.12v-.56h1.29l-1.41-1.41ZM84.69,85.51v-1.85l-4.7-4.7h-1.85l6.55,6.55ZM84.69,67.12v-.88c-.41-.88-.76-1.8-1.06-2.74h-2.55l3.62,3.62ZM84.69,64.48v-.98h-.35c.11.33.23.66.35.98ZM69.9,68.87v1.85l7.56,7.56h1.85l-9.41-9.41ZM69.9,71.68v6.6h6.6l-6.6-6.6ZM69.22,85.63v-6.66h-6.66l6.66,6.66ZM69.22,77.78v-6.77l-7.51-7.51h-6.77l14.28,14.28ZM69.22,70.04v-1.85l-4.69-4.7h-1.85l6.55,6.55ZM69.22,67.23v-3.73h-3.73l3.73,3.73ZM54.44,63.95v6.89l7.45,7.45h6.89l-14.33-14.33ZM54.44,71.8v1.85l4.63,4.63h1.85l-6.49-6.48ZM54.44,74.61v3.67h3.67l-3.67-3.67ZM53.76,78.28v-4.35l-10.44-10.44h-4.35v10.27l4.52,4.52h10.27ZM53.76,72.97v-1.85l-7.62-7.62h-1.85l9.48,9.47ZM53.76,70.16v-6.66h-6.66l6.66,6.66ZM38.97,74.73v3.56h3.56l-3.56-3.56ZM8.04,78.28h14.79v-14.79h-14.79v14.79ZM112.35,78.96h-11.31c1.81.45,3.71.68,5.66.68s3.85-.24,5.66-.68ZM81.71,78.96h-.75l1.98,1.98c-.43-.65-.84-1.31-1.23-1.98ZM87.93,78.28h6.97l-3-3c-1.46-1.13-2.8-2.43-3.97-3.86v6.86ZM95.86,78.28h1.08c-.25-.11-.49-.22-.74-.34l-.34.34ZM85.61,86.43l.57.58.57-.58h-1.15ZM94.77,77.19l.61.61.18-.18c-.27-.14-.53-.28-.79-.43ZM186.19,63.14v24h-.68v-24h.68ZM164.71,63.14c-1.58,4.64-3.85,8.97-6.7,12.85l11.15,11.15h-.96l-10.6-10.6c-3.1,4.1-6.84,7.69-11.08,10.6h-1.22c4.55-2.99,8.55-6.75,11.82-11.09l-6.97-6.97-.82.82-1.88-4.01,4.01,1.88-.83.83,6.9,6.89c2.73-3.74,4.92-7.9,6.47-12.36h.72ZM131.77,63.14v16.69l14.99-14.99c.06-.57.1-1.13.13-1.71h.68c-.02.32-.04.64-.06.96l.96-.96h.96l-2.01,2.02c-.93,8.64-4.97,16.35-10.99,21.98h-1c6-5.38,10.11-12.82,11.21-21.2l-14.86,14.86v6.35h-.68v-5.67l-5.67,5.67h-.96l6.63-6.63v-1.55h-7.89v8.18h-.68v-8.18h-1.39c-1.03,2.65-1.9,5.38-2.6,8.18h-.7c.69-2.8,1.56-5.53,2.57-8.18h-4.1v8.18h-.68v-8.18h-.9c-2.51.88-5.22,1.36-8.03,1.36-2.02,0-3.98-.25-5.85-.71v3.65l3.88,3.88h-.96l-2.92-2.92v2.92h-.68v-3.6l-4.58-4.58h-.39l-5.38,5.38c1.22.99,2.5,1.93,3.82,2.8h-1.21c-1.06-.73-2.1-1.5-3.1-2.32l-.92.92h1.29v.68h-1.25c.25.24.51.48.77.71h-1.03s-.24-.24-.24-.24v.24h-.68v-.24l-.24.24h-2.32v-.67l-7.51-7.51h-6.77l8.18,8.18h-.96l-7.73-7.73v6.89l.84.84h-1.52v-.55l-7.62-7.62h-1.85l8.18,8.18h-.96l-8.18-8.18h-4.35v8.18h-.68v-8.18h-9.59l8.18,8.18h-.96l-8.18-8.18h-4.24v8.18h-.68v-8.18h-3.48c-.31,2.69-.51,5.42-.57,8.18h-.68c.07-2.76.26-5.48.57-8.18h-10.63v8.18h-.68v-8.18h-14.79v8.18h-.68v-24h124.41Z" fill="#bdbcbc"/>
      <path d="M151.45,17.41l-.79-.79-2.94,2.94c3.42.24,6.91.6,10.3,1.14-1.56-2.21-3.3-4.29-5.2-6.19l-1.36,2.9M150.18,16.14l-.86-.86,2.89-1.35c-8.15-7.89-19.15-12.86-31.31-13.22-3.53.08-7.02.36-10.44.84-4.97.96-9.65,2.7-13.93,5.09,1.75-.56,3.62-.86,5.56-.86,7.39,0,13.76,4.35,16.68,10.64h.48v-.24h.68v.24h11.83v2.9c4.23-.16,9.51-.16,15.04.19l3.37-3.36ZM149.82,43.69s-.45.39-1.22,1.05c5.17-3.24,10.79-5.83,16.75-7.64-1.14-4.92-3.05-9.55-5.6-13.76-4.26-.36-9.51-.53-15.62-.21l-10.26,10.26c4.66,3.6,8.39,8.33,10.78,13.79,2.76-2.3,4.72-4.01,4.72-4.01l.45.51ZM135.66,55.19c-1.25.94-2.55,1.94-3.89,2.94v1.38c1.24-1.49,2.53-2.94,3.89-4.32ZM131.09,58.64l-.35.26c-.09.81-.23,1.61-.4,2.4.25-.32.5-.64.75-.95v-1.71ZM129.98,59.47c-1.55,1.15-3.14,2.28-4.74,3.35h3.96l.08-.11c.31-1.05.54-2.13.7-3.24ZM123.96,62.82c.82-.54,1.68-1.12,2.61-1.77,1.17-.81,2.34-1.67,3.53-2.55.08-.78.12-1.58.12-2.38,0-2.84-.5-5.57-1.43-8.09h-3.81c.18,1.03.27,2.09.27,3.17,0,4.4-1.55,8.45-4.13,11.62h2.84ZM130.83,57.96l.26-.2v-9.74h-1.58c.9,2.53,1.38,5.25,1.38,8.09,0,.62-.02,1.23-.07,1.84ZM131.77,57.26c1.35-1.01,2.72-2.05,4.09-3.07,2.81-2.1,5.79-4.51,8.24-6.54-2.35-5.45-6.07-10.18-10.72-13.75l-1.62,1.62v21.75ZM89.1,42.35l3.05-2.7c-.45-.29-.88-.59-1.3-.92-1.06.97-2.04,2.04-2.91,3.19v5.43h.93c.47-2.22,1.35-4.3,2.54-6.14l-1.86,1.65-.45-.51ZM92.67,39.18l1.98-1.76c.53-.48,2.26-1.96,5.5-3.82v-.09c-3.28.95-6.27,2.59-8.8,4.76.42.32.86.63,1.31.91ZM103.4,31.89c.94-.46,1.97-.93,3.08-1.41v-3.25c-1.94.33-3.83.82-5.64,1.46v3.2h2.57ZM107.16,30.19c2.42-1.01,5.23-2.02,8.46-2.98v-.32c-1.09-.1-2.2-.16-3.31-.16-1.75,0-3.46.13-5.14.38v3.07ZM116.3,27.02l.13-.04h-.13s0,.04,0,.04ZM118.07,26.53c.39-.11.79-.21,1.19-.31v-4.88c-.99.18-1.97.38-2.95.6v4.34c.59.07,1.18.15,1.77.24ZM120.41,25.93c3-.73,6.29-1.4,9.91-1.98l.78-.12v-3.81c-.71.04-1.42.08-2.15.12-2.88.18-5.8.52-8.7,1.02.16.98.24,1.99.24,3.01,0,.59-.03,1.18-.08,1.75ZM131.77,23.72c4.32-.64,8.35-1.03,12.06-1.24l2.43-2.43c-4.29-.25-9.12-.31-14.49-.07v3.74ZM144.85,22.43c5.58-.27,10.43-.12,14.45.21-.25-.39-.5-.79-.76-1.17-3.22-.57-7.01-1.06-11.37-1.36l-2.32,2.32ZM160.15,22.71c3.23.29,5.89.69,7.92,1.06-2.11-.68-4.97-1.45-8.6-2.14.23.35.46.71.68,1.07ZM172.7,24.84l.11.03,2.52.7-.18.65-.38-.1.65.4-.36.58-2.64-1.63c-.86-.25-4.71-1.3-11.06-1.95l-.78-.08c2.45,4.13,4.3,8.67,5.42,13.48,3.54-1.04,7.21-1.8,10.96-2.27l6.12-6.12-.84-.84,2.96-1.39c-14.76-14.6-34.62-24.05-56.67-25.44,9.34,1.79,17.71,6.3,24.26,12.68l1.13-1.13.48.48-1.12,1.12c2.1,2.1,4,4.39,5.68,6.85,5.02.86,9.76,2.1,13.59,3.88l.16.1ZM143.11,23.21c-3.51.22-7.3.6-11.34,1.2v7.49c.53.35,1.05.71,1.55,1.09l9.78-9.78ZM131.09,24.51l-.67.11c-3.69.59-7.05,1.28-10.1,2.03l-.04.31c3.89.9,7.53,2.44,10.81,4.5v-6.95ZM118.11,27.22c-.61.17-1.21.33-1.8.5v4.16h1.74c.51-1.05.92-2.16,1.21-3.31v-1.14c-.38-.08-.77-.15-1.15-.21ZM115.63,27.92c-3.25.97-6.06,1.99-8.46,3.01v.96s8.46,0,8.46,0v-3.96ZM106.48,31.22c-.52.22-1.01.45-1.49.67h1.49v-.67ZM102.9,32.9c-.44.22-.86.44-1.26.66,1.54-.45,3.16-.71,4.84-.75v-.21c-1.22.01-2.41.11-3.58.3ZM115.63,22.1c-2.85.66-5.68,1.48-8.45,2.46v1.87c1.67-.24,3.39-.37,5.14-.37,1.12,0,2.22.05,3.31.15v-4.12ZM106.5,24.8c-1.92.7-3.81,1.48-5.66,2.33v.83c1.82-.63,3.71-1.11,5.65-1.43v-1.73ZM100.16,27.45c-2.74,1.3-5.38,2.78-7.88,4.43h.59c2.26-1.49,4.7-2.73,7.28-3.68v-.75ZM91.28,32.56l-.75.52c-1.09.77-1.95,1.48-2.47,1.91.1.14.21.27.32.4,1.1-1.02,2.27-1.97,3.5-2.84h-.61ZM84.69,30.16c-.06-.18-.12-.36-.18-.54-.54-1.72-.82-3.53-.82-5.45,0-2.1.35-4.11,1-5.99v-1.09h-.95c-3.71,4.32-6.65,9.32-8.61,14.79h9.57v-1.73ZM84.38,24.17c0,1.14.11,2.26.32,3.35v-6.7c-.21,1.08-.32,2.2-.32,3.35ZM85.37,30.04c.22.63.48,1.24.77,1.84h1.11v-.84h.68v.84h3.09c2.29-1.57,4.74-2.96,7.16-4.19.63-.32,1.29-.64,1.97-.97v-9.63h-14.31c-.17.4-.33.8-.48,1.21v11.74ZM86.49,32.56c.24.44.5.87.77,1.29v-1.29h-.77ZM87.93,34.21c.69-.57,1.4-1.12,2.13-1.64h-2.13v1.64ZM100.84,26.41c1.73-.79,3.62-1.58,5.66-2.32l.02-6.99h-5.68v9.32ZM107.18,23.85c2.58-.91,5.4-1.75,8.45-2.46v-4.29h-8.43l-.02,6.75ZM116.3,21.23c.96-.21,1.95-.41,2.95-.6v-.86c-.24-.92-.54-1.82-.92-2.68h-2.03v4.14ZM120.12,20.48c2.77-.48,5.7-.83,8.78-1.03.69-.04,1.42-.08,2.19-.12v-2.25h-11.15v2.6c.07.26.13.53.18.79ZM186.19,27.3v6.8c2.12.02,4.21.12,6.27.32-1.96-2.49-4.06-4.87-6.27-7.13ZM185.52,34.1v-6.72l-1.14,2.44-.81-.81-5.51,5.51c2.45-.27,4.94-.41,7.46-.41ZM176.17,35.43c-3.43.47-6.78,1.19-10.02,2.15.49,2.24.82,4.55.98,6.9l9.05-9.05ZM131.09,61.45c-.35.45-.7.91-1.04,1.37h1.04v-1.37ZM119.02,47.3l.24-.24v-8.51c-.9-.88-1.89-1.66-2.95-2.34v11.14h2.77l-.05-.05ZM119.94,46.38l2.88-2.88c-.75-1.56-1.72-2.99-2.88-4.25v7.12ZM123.32,43l1.67-1.67c-1.45-1.79-3.15-3.36-5.05-4.66v1.6c1.36,1.38,2.51,2.97,3.38,4.73ZM125.47,40.85l5.62-5.62v-2.66h-11.15v3.29c2.09,1.37,3.96,3.06,5.53,4.99ZM131.77,34.55l1.07-1.07c-.35-.26-.71-.51-1.07-.76v1.83ZM131.09,36.19l-5.2,5.2c1.39,1.8,2.53,3.81,3.36,5.97h1.83v-11.16ZM125.41,41.87l-1.78,1.78c.53,1.17.94,2.41,1.21,3.7h3.68c-.79-1.97-1.85-3.82-3.12-5.48ZM123.12,44.16l-3.18,3.18h4.21c-.24-1.1-.59-2.16-1.03-3.18ZM119.94,28.66v3.23h10.55c-3.14-1.94-6.62-3.39-10.32-4.25-.07.35-.14.69-.23,1.03ZM119.94,48.03v14.79h.29c2.7-3.11,4.34-7.17,4.34-11.62,0-1.08-.1-2.14-.28-3.17h-4.35ZM119.26,62.82v-14.79h-2.95v12.99h1.64v.68h-1.64v1.12h2.95ZM119.26,37.62v-1.39c-.73-.46-1.48-.88-2.26-1.26-.15.2-.3.4-.45.6.97.6,1.88,1.29,2.72,2.06ZM119.26,35.43v-2.86h-.79c-.32.63-.69,1.25-1.08,1.83.64.32,1.27.66,1.87,1.03ZM119.26,31.89v-1.08c-.14.37-.29.73-.46,1.08h.46ZM119.26,17.55v-.45h-.18l.18.45ZM37.54,62.82c.24-.78.49-1.56.76-2.33v-2.03l-10.43-10.44h-4.35v10.27l4.52,4.52h9.51ZM39.08,58.29c.17-.45.34-.9.51-1.34l-.61-.61v1.85l.1.1ZM39.86,56.26c.65-1.62,1.34-3.23,2.08-4.8l-2.97-2.97v6.89l.89.88ZM42.25,50.8c.45-.93.91-1.86,1.39-2.77h-4.16l2.77,2.77ZM43.99,47.35c.18-.34.37-.68.56-1.02l-5.58-5.58v6.6h5.02ZM44.89,45.71c.22-.39.45-.79.67-1.18l-6.59-6.59v1.85l5.92,5.92ZM45.92,43.92c1.79-3.03,3.76-5.95,5.89-8.74l-2.62-2.62h-10.21v4.41l6.95,6.95ZM52.22,34.65c.5-.65,1.02-1.29,1.54-1.93v-.15h-3.62l2.08,2.08ZM54.45,31.89c4.38-5.21,9.33-9.9,14.77-13.99v-.8h-14.79v14.79h.01ZM69.91,17.38l.39-.29h-.39v.29ZM103.01,2.91c-11.14,2.55-21.48,7.2-30.58,13.51h11c5.24-6.01,11.95-10.7,19.58-13.51ZM71.46,17.1c-.52.37-1.04.75-1.55,1.14v13.65h4.5c1.92-5.45,4.8-10.45,8.44-14.79h-11.39ZM69.23,18.74c-5.09,3.87-9.74,8.28-13.88,13.14h13.88v-13.14ZM54.77,32.56l-.33.4v3.9l10.49,10.49h4.3v-14.79h-14.46ZM53.76,33.8c-.36.44-.71.89-1.05,1.33l1.05,1.05v-2.39ZM52.29,35.67c-2.12,2.79-4.09,5.71-5.88,8.75l2.93,2.93h4.41v-10.21l-1.47-1.47ZM46.06,45.03c-.23.39-.45.79-.67,1.18l1.14,1.14h1.85l-2.32-2.32ZM45.05,46.83l-.28.52h.81l-.52-.52ZM44.4,48.03c-.57,1.08-1.12,2.17-1.64,3.28l11,11v-6.77l-7.51-7.51h-1.85ZM42.45,51.96c-.74,1.58-1.43,3.19-2.07,4.82l6.04,6.04h6.89l-10.85-10.85ZM40.11,57.47c-.17.45-.34.9-.51,1.35l4,4h1.85l-5.35-5.35ZM39.35,59.52c-.13.36-.25.72-.38,1.08v2.21h3.67l-3.29-3.29ZM38.29,62.67l-.04.14.04-.14ZM86.98,13.68c-.92.88-1.8,1.79-2.64,2.73h1.07c.45-.96.97-1.87,1.57-2.73ZM74.89,32.56c-1.58,4.64-2.46,9.62-2.51,14.79h7.52c1.25-2.88,2.86-5.56,4.79-7.98v-6.81h-9.8ZM72.38,48.03c.01,2.52.22,4.98.62,7.39l4.06,4.06c.21-4.03,1.1-7.89,2.55-11.45h-7.23ZM73.21,56.59c.4,2.13.95,4.21,1.63,6.23h2.21c-.02-.48-.03-.97-.03-1.46,0-.32,0-.63.01-.95l-3.82-3.82ZM74.12,62.82c-.76-2.29-1.35-4.65-1.76-7.07l-2.46-2.46v9.53h4.21ZM72.19,54.61c-.31-2.15-.47-4.35-.49-6.58h-1.8v4.3l2.28,2.28ZM71.7,47.35c.04-5.17.91-10.14,2.47-14.79h-4.27v14.79h1.8ZM102.09,6.46c-7,0-13.06,4.06-15.93,9.96h31.86c-2.88-5.9-8.93-9.96-15.93-9.96ZM88.83,35.92c.61.69,1.28,1.33,1.99,1.92,2.66-2.32,5.84-4.06,9.34-5.04v-.24h-7.07c-1.51,1.01-2.93,2.13-4.25,3.36ZM93.44,39.64c2.03,1.14,4.3,1.89,6.72,2.15v-6.99c-2.61,1.07-4.91,2.74-6.72,4.84ZM100.84,41.85c.41.03.83.04,1.25.04,1.51,0,2.97-.19,4.36-.54l.02-7.86c-1.98.04-3.87.41-5.64,1.04v7.31ZM107.14,41.16c3.29-.98,6.19-2.89,8.38-5.42-2.48-1.39-5.32-2.2-8.36-2.25l-.02,7.67ZM116.3,34.75l.06-.08-.06.08ZM116.77,34.1c.34-.5.65-1.01.93-1.54h-1.4v1.33l.46.21ZM115.63,36.63c-2.26,2.46-5.19,4.3-8.49,5.24v5.48s8.49,0,8.49,0v-10.72ZM106.46,42.05c-1.4.34-2.86.52-4.36.52-.42,0-.84-.01-1.25-.04v4.82h5.6v-5.3ZM100.16,42.47c-2.58-.27-5.01-1.07-7.16-2.3-1.65,2.07-2.85,4.51-3.44,7.19h10.6v-4.88ZM90.31,38.3c-.71-.59-1.37-1.23-1.98-1.91l-.4.39v4.04c.73-.9,1.53-1.74,2.38-2.52ZM87.25,35.05c-.58-.78-1.09-1.62-1.54-2.49h-.34v5.98c.6-.71,1.23-1.39,1.88-2.05v-1.44ZM115.63,62.82v-1.12h-2.64l1.12,1.12h1.52ZM115.63,61.02v-12.99h-8.51v2.83s5.36,0,5.36,0v.68h-5.37v4.24s5.21,0,5.21,0v.65h.38s-.04,4.1-.04,4.1l.37-.37.48.48-.38.38h2.49ZM115.63,35.03v-.68c-2.62-1.08-5.48-1.69-8.47-1.75v.21c3.06.05,5.94.85,8.47,2.22ZM115.63,33.62v-1.05h-3.34c1.15.27,2.26.62,3.34,1.05ZM100.84,32.56h.26-.26ZM100.84,48.03v14.79h5.57v-6.36s-5.34,0-5.34,0v-.68h5.05l-1.66-1.66.48-.48,1.5,1.5v-3.6s-5.2,0-5.2,0v-.68h5.21v-2.83s-5.6,0-5.6,0ZM100.16,62.82v-14.79h-10.74c-.18,1.03-.28,2.09-.28,3.17,0,4.44,1.64,8.51,4.34,11.62h6.68ZM100.16,31.89v-2.95c-2.11.79-4.13,1.78-6.02,2.95h6.02ZM85.37,39.61v5.03c.56-1.03,1.19-2.02,1.88-2.95v-4.22c-.65.69-1.28,1.4-1.88,2.14ZM85.37,46.16v1.19h1.88v-4.49c-.71,1.04-1.34,2.14-1.88,3.29ZM87.25,48.03h-1.88v14.79h1.88v-14.79ZM84.69,62.82v-14.79h-.1c-.92,2.52-1.43,5.25-1.43,8.09,0,2.33.34,4.57.97,6.7h.56ZM84.69,46.01v-5.53c-1.6,2.11-2.96,4.42-4.05,6.87h3.48c.18-.46.37-.9.57-1.34ZM69.23,62.82v-10.21l-4.58-4.58h-10.21v4.41l10.37,10.37h4.41ZM69.23,51.65v-3.62h-3.62l3.62,3.62ZM54.44,37.82v9.53h9.53l-9.53-9.53ZM54.44,53.41v1.85l7.56,7.56h1.85l-9.41-9.41ZM54.44,56.22v6.6h6.6l-6.6-6.6ZM53.76,54.58v-1.85l-4.7-4.7h-1.85l6.55,6.55ZM53.76,51.76v-3.73h-3.74l3.74,3.73ZM53.76,31.89v-14.79h-14.79v4.3l10.49,10.49h4.3ZM38.97,22.36v9.53h9.53l-9.53-9.53ZM38.29,57.51v-1.85l-7.62-7.62h-1.85l9.47,9.48ZM38.29,54.69v-6.66h-6.66l6.66,6.66ZM38.29,46.84v-6.77l-7.51-7.51h-6.77l14.28,14.28ZM38.29,39.11v-1.85l-4.69-4.7h-1.85l6.55,6.55ZM38.29,36.3v-3.73h-3.73l3.73,3.73ZM38.29,31.89v-10.21l-4.37-4.37-7.31,7.31,7.27,7.27h4.41ZM38.29,20.72v-3.62h-3.62l3.62,3.62ZM23.51,17.1v4.42l2.62,2.62,7.04-7.04h-9.66ZM23.51,22.47v1.85l1.22,1.22.93-.93-2.14-2.14ZM23.51,25.29v1.47l.74-.74-.74-.74ZM23.51,27.72v4.17h6.6l-5.38-5.38-1.22,1.22ZM23.51,33.02v6.89l7.45,7.45h6.89l-14.33-14.33ZM23.51,40.87v1.85l4.63,4.63h1.85l-6.49-6.48ZM23.51,43.68v3.67h3.67l-3.67-3.67ZM23.51,59.26v3.56h3.56l-3.56-3.56ZM22.83,62.82v-4.24l-10.55-10.55h-4.24v14.79h14.79ZM22.83,57.62v-9.59h-9.59l9.59,9.59ZM22.83,47.35v-4.35l-7.3-7.3-7.31,7.31,4.34,4.34h10.27ZM22.83,42.04v-1.85l-5.89-5.89-.93.93,6.82,6.82ZM22.83,39.23v-6.66h-4.17l-1.25,1.25,5.41,5.41ZM22.83,31.38v-2.98l-1.49,1.49,1.49,1.49ZM22.83,27.44v-2.83l-3.03-3.03.48-.48,2.55,2.55v-1.85l-1.63-1.63.48-.48,1.15,1.15v-3.74h-14.28l12.31,12.31,1.97-1.97ZM77.72,62.82h1.71l-1.74-1.74v.28c0,.49,0,.98.03,1.46ZM80.39,62.82h3.03c-.61-2.13-.94-4.37-.94-6.7,0-2.84.49-5.56,1.38-8.09h-3.52c-1.56,3.75-2.49,7.83-2.64,12.11l2.68,2.68ZM87.93,62.82h4.66c-2.58-3.17-4.13-7.21-4.13-11.62,0-1.08.09-2.14.27-3.17h-.8v14.79ZM107.09,62.82h3.29l1.12-1.12h-4.4v1.12ZM111.33,62.82h.62v-.63s-.62.63-.62.63ZM112.64,62.82h.51l-.5-.5v.5ZM8.04,47.35h3.56l-3.56-3.56v3.56ZM17.7,32.56h-1.54l.77.77.77-.77ZM15.2,32.56h-1.85l2.18,2.18.93-.93-1.25-1.25ZM12.39,32.56h-4.35v9.66l7.01-7.01-2.65-2.65ZM8.04,31.89h3.67l-1.12-1.12.48-.48,1.6,1.6h1.85l-2.52-2.52.48-.48,3,3h2.9l2-2-12.34-12.34v14.33ZM19.34,31.89h3.03l-1.52-1.52-1.51,1.52ZM31.07,31.89h1.85l-6.79-6.79-.93.93,5.86,5.86ZM107.09,61.02h4.26l-4.24-4.25v4.25ZM111.98,60.69l.05-4.23h-4.28l4.23,4.23ZM7.36,63.14v-19.28L.48,50.75l-.48-.48,7.25-7.26-4.45-4.45.48-.48,4.07,4.07v-25.28l-2.15-2.15.48-.48,2.18,2.18h25.17l-4.04-4.04.48-.48,4.45,4.45,5.91-5.91.48.48-5.5,5.5h36.43c11.36-8.06,24.68-13.52,39.11-15.55,2.95-.57,6-.87,9.12-.87.48,0,.96,0,1.43.02.65-.01,1.31-.02,1.96-.02,24.41,0,46.53,9.79,62.65,25.65v-5.25h.68v5.01l1.93-1.93.48.48-2.39,2.39c2.56,2.57,4.96,5.3,7.19,8.17,2.49.27,4.95.68,7.37,1.21l-.14.66c-2.19-.48-4.41-.85-6.65-1.12,1.42,1.87,2.78,3.8,4.05,5.78l-.57.37c-1.38-2.15-2.86-4.24-4.42-6.26-2.25-.24-4.54-.37-6.85-.38v28.36h-.68v-28.36c-2.79,0-5.54.18-8.24.51l-10.1,10.1c.04.79.06,1.58.06,2.38,0,5.38-.89,10.55-2.53,15.37h-.72c1.66-4.81,2.57-9.98,2.57-15.37,0-.58,0-1.16-.03-1.73l-17.1,17.1h-.96l18.02-18.02c-.14-2.5-.47-4.96-.99-7.34-7.44,2.27-14.35,5.75-20.5,10.23,1.68,4.12,2.61,8.63,2.61,13.36,0,.6-.01,1.19-.04,1.78h-.68c.03-.59.05-1.19.05-1.78,0-4.57-.89-8.94-2.5-12.94-4.72,3.51-8.97,7.6-12.66,12.17v2.55H7.36Z" fill="#bdbcbc"/>
      <path d="M603.32,243.65l15.3,16v-16h-4.38v5.37l-5.12-5.37h-5.8M587.97,243.65h-4.38v14.23h4.38v-14.23ZM537.15,243.65c2.39,8.65,10.4,14.91,19.76,14.91s17.37-6.25,19.76-14.9h-4.59c-2.22,6.26-8.17,10.84-15.17,10.84s-12.95-4.57-15.17-10.84h-4.59ZM492.22,243.65c2.39,8.65,10.4,14.91,19.76,14.91s17.37-6.25,19.76-14.9h-4.59c-2.22,6.26-8.17,10.84-15.17,10.84s-12.95-4.57-15.17-10.84h-4.59ZM481.95,243.65c.47.87.75,1.91.75,3.18,0,4.43-3.86,7.66-8.08,7.66s-7.3-3.28-7.87-7.3l-4.27,1.2c1.25,6.1,5.94,10.17,12.25,10.17,6.83,0,12.35-5.26,12.35-12.15,0-1.01-.11-1.93-.32-2.76h-4.8ZM404,243.65c2.37,8.52,10.28,14.91,19.5,14.91,5.47,0,10.95-2.4,14.54-6.57,2.27-2.63,3.34-5.35,3.79-8.34h-4.51c-.88,6.5-7.56,10.84-13.92,10.84-4.12,0-8.29-2.14-11.16-5-1.65-1.68-2.9-3.67-3.67-5.83h-4.57ZM382.09,243.65l15.3,16v-16h-4.38v5.37l-5.12-5.37h-5.8ZM366.73,243.65h-4.38v14.23h4.38v-14.23ZM354.13,243.65h-4.38v14.23h4.38v-14.23ZM337.4,243.65l2.76,14.23h4.48l-2.73-14.23h-4.51ZM315.19,243.65l7.15,15.84,7.12-15.84h-4.65l-2.47,5.68-2.46-5.68h-4.69ZM302.81,243.65l-2.73,14.23h4.48l2.71-14.23h-4.46ZM256.76,243.65c2.39,8.65,10.4,14.91,19.76,14.91s17.37-6.25,19.76-14.9h-4.59c-2.22,6.26-8.17,10.84-15.17,10.84s-12.95-4.57-15.17-10.84h-4.59ZM219.13,243.65c2.39,8.59,10.48,14.91,19.77,14.91,4.17,0,8.34-1.41,11.73-3.86v-5.42c-3.13,3.13-7.45,5.21-11.88,5.21-6.9,0-12.77-4.66-15-10.84h-4.61Z" fill="#95c23d" fill-rule="evenodd"/>
      <path d="M441.83,243.65c.26-1.74.32-3.57.28-5.53h-16.37v4.07h11.68c0,.5-.03.99-.1,1.46h4.51M614.24,235.65v8h4.38v-8h-4.38ZM595.67,235.65l7.65,8h5.8l-7.64-8h-5.81ZM583.59,235.65v8h4.38v-8h-4.38ZM572.82,235.65c.13.84.2,1.7.2,2.58,0,1.89-.33,3.72-.93,5.43h4.59c.47-1.71.72-3.51.72-5.37,0-.89-.06-1.77-.17-2.63h-4.41ZM536.6,235.65c-.11.86-.17,1.74-.17,2.63,0,1.87.25,3.67.72,5.38h4.59c-.6-1.71-.93-3.53-.93-5.43,0-.88.07-1.74.2-2.57h-4.41ZM527.89,235.65c.13.84.2,1.7.2,2.58,0,1.89-.33,3.72-.93,5.43h4.59c.47-1.71.72-3.51.72-5.37,0-.89-.06-1.77-.17-2.63h-4.41ZM491.67,235.65c-.11.86-.17,1.74-.17,2.63,0,1.87.25,3.67.73,5.38h4.59c-.6-1.71-.93-3.53-.93-5.43,0-.88.07-1.74.2-2.57h-4.41ZM468.75,235.65c1.28.88,2.76,1.61,4.31,2.32l2.4,1.04c2.64,1.21,5.25,2.36,6.49,4.64h4.8c-1.04-4.09-4.45-6.19-8.45-8h-9.56ZM403.45,235.65c-.12.88-.18,1.77-.18,2.68,0,1.83.25,3.62.72,5.31h4.57c-.6-1.67-.92-3.45-.92-5.26,0-.93.08-1.84.23-2.74h-4.43ZM393.01,235.65v8h4.38v-8h-4.38ZM374.44,235.65l7.65,8h5.8l-7.64-8h-5.81ZM362.36,235.65v8h4.38v-8h-4.38ZM349.76,235.65v8h4.38v-8h-4.38ZM335.84,235.65l1.55,8h4.51l-1.54-8h-4.53ZM328.28,235.65l-3.48,8h4.65l3.59-8h-4.77ZM311.58,235.65l3.61,8h4.69l-3.46-8h-4.83ZM304.34,235.65l-1.54,8h4.46l1.52-8h-4.44ZM292.43,235.65c.13.84.2,1.7.2,2.58,0,1.89-.33,3.72-.93,5.43h4.59c.47-1.71.72-3.51.72-5.37,0-.89-.06-1.77-.17-2.63h-4.41ZM256.21,235.65c-.11.86-.17,1.74-.17,2.63,0,1.87.25,3.67.72,5.38h4.59c-.6-1.71-.93-3.53-.93-5.43,0-.88.07-1.74.2-2.57h-4.41ZM218.59,235.65c-.12.9-.18,1.81-.18,2.73,0,1.82.25,3.59.72,5.27h4.61c-.62-1.72-.95-3.55-.95-5.42,0-.87.07-1.74.21-2.58h-4.41Z" fill="#95c23d" fill-rule="evenodd"/>
      <path d="M614.24,235.65h4.38v-17.07h-4.38v17.07ZM587.97,235.65v-8.06l7.7,8.06h5.81l-17.89-18.74v18.74h4.38ZM541,235.65c1.21-7.71,7.77-13.68,15.91-13.68s14.7,5.98,15.91,13.69h4.41c-1.31-10.02-9.99-17.75-20.31-17.75s-19,7.74-20.31,17.75h4.41ZM496.08,235.65c1.21-7.71,7.77-13.68,15.91-13.68s14.7,5.98,15.91,13.69h4.41c-1.31-10.02-9.99-17.75-20.31-17.75s-19.01,7.74-20.32,17.75h4.41ZM478.31,235.65c-.22-.09-.44-.19-.67-.29l-2.6-1.15c-2.66-1.2-6.15-2.76-6.15-6.15,0-3.6,3.02-6.1,6.52-6.1s5.21,1.56,6.78,4.27l3.49-2.24c-2.09-3.86-5.79-6.1-10.16-6.1-5.84,0-11,3.91-11,10.01,0,3.73,1.74,6.01,4.24,7.74h9.56ZM407.89,235.65c1.28-7.63,7.8-13.68,15.83-13.68,5.79,0,10.22,2.76,13.5,7.4l3.18-2.97c-4.17-5.42-9.75-8.49-16.63-8.49-10.4,0-18.99,7.75-20.31,17.75h4.43ZM393.01,235.65h4.38v-17.07h-4.38v17.07ZM366.74,235.65v-8.06l7.7,8.06h5.81l-17.89-18.74v18.74h4.38ZM354.13,235.65v-17.07h-4.38v17.07h4.38ZM333.04,235.65l1.96-4.35.85,4.35h4.53l-3.71-19.31-8.39,19.31h4.77ZM308.79,235.65l.83-4.35,1.96,4.35h4.83l-8.36-19.31-3.71,19.31h4.44ZM260.62,235.65c1.21-7.71,7.77-13.68,15.91-13.68s14.7,5.98,15.91,13.69h4.41c-1.31-10.02-9.99-17.75-20.31-17.75s-19,7.74-20.31,17.75h4.41ZM223,235.65c1.24-7.53,7.76-13.68,15.63-13.68,4.54,0,8.86,1.98,11.99,5.21v-5.42c-3.49-2.61-7.35-3.86-11.73-3.86-10.33,0-18.95,7.77-20.3,17.76h4.41Z" fill="#95c23d" fill-rule="evenodd"/>
    </g>
  </g>
</svg>